<svg 
 xmlns="http://www.w3.org/2000/svg"
 xmlns:xlink="http://www.w3.org/1999/xlink"
 width="92.5px" height="81.5px">
<g transform="translate(-5.5, -5)">
<path fill-rule="evenodd"  stroke-width="1px" stroke="rgb(122, 122, 122)" fill="rgb(122, 122, 122)"
 d="M26.785,46.511 L27.559,45.117 L41.628,53.269 L40.854,54.662 L26.785,46.511 Z"/>
<path fill-rule="evenodd"  stroke-width="1px" stroke="rgb(122, 122, 122)" fill="rgb(122, 122, 122)"
 d="M49.814,51.341 L48.228,51.268 L49.815,19.616 L51.401,19.690 L49.814,51.341 Z"/>
<path fill-rule="evenodd"  stroke-width="1px" stroke="rgb(122, 122, 122)" fill="rgb(122, 122, 122)"
 d="M56.740,56.173 L55.960,54.782 L84.080,40.245 L84.860,41.635 L56.740,56.173 Z"/>
<path fill-rule="evenodd"  stroke-width="1px" stroke="rgb(122, 122, 122)" fill="rgb(122, 122, 122)"
 d="M55.220,63.357 L55.851,61.892 L84.234,74.262 L83.603,75.727 L55.220,63.357 Z"/>
<path fill-rule="evenodd"  stroke-width="1px" stroke="rgb(122, 122, 122)" fill="rgb(122, 122, 122)"
 d="M41.421,59.857 L41.806,61.405 L26.992,65.131 L26.607,63.582 L41.421,59.857 Z"/>
<path fill-rule="evenodd"  stroke-width="3px" stroke="rgb(122, 122, 122)" fill-opacity="0" fill="rgb(74, 183, 195)"
 d="M49.000,52.281 C52.504,52.281 55.344,55.142 55.344,58.672 C55.344,62.201 52.504,65.062 49.000,65.062 C45.496,65.062 42.656,62.201 42.656,58.672 C42.656,55.142 45.496,52.281 49.000,52.281 Z"/>
<path fill-rule="evenodd"  stroke-width="3px" stroke="rgb(122, 122, 122)" fill-opacity="0" fill="rgb(74, 183, 195)"
 d="M88.687,34.906 C91.156,34.906 93.156,36.907 93.156,39.375 C93.156,41.843 91.156,43.844 88.687,43.844 C86.219,43.844 84.219,41.843 84.219,39.375 C84.219,36.907 86.219,34.906 88.687,34.906 Z"/>
<path fill-rule="evenodd"  stroke-width="3px" stroke="rgb(122, 122, 122)" fill-opacity="0" fill="rgb(74, 183, 195)"
 d="M16.750,31.469 C22.014,31.469 26.281,35.750 26.281,41.031 C26.281,46.312 22.014,50.594 16.750,50.594 C11.486,50.594 7.219,46.312 7.219,41.031 C7.219,35.750 11.486,31.469 16.750,31.469 Z"/>
<path fill-rule="evenodd"  stroke-width="3px" stroke="rgb(122, 122, 122)" fill-opacity="0" fill="rgb(74, 183, 195)"
 d="M23.109,62.250 C24.861,62.250 26.281,63.677 26.281,65.437 C26.281,67.198 24.861,68.625 23.109,68.625 C21.358,68.625 19.937,67.198 19.937,65.437 C19.937,63.677 21.358,62.250 23.109,62.250 Z"/>
<path fill-rule="evenodd"  stroke-width="3px" stroke="rgb(122, 122, 122)" fill-opacity="0" fill="rgb(74, 183, 195)"
 d="M91.360,72.603 C94.807,73.250 97.079,76.586 96.435,80.053 C95.791,83.520 92.475,85.806 89.028,85.158 C85.581,84.511 83.309,81.175 83.953,77.708 C84.597,74.241 87.913,71.956 91.360,72.603 Z"/>
<path fill-rule="evenodd"  stroke-width="3px" stroke="rgb(122, 122, 122)" fill-opacity="0" fill="rgb(74, 183, 195)"
 d="M51.672,6.875 C55.184,6.875 58.031,9.736 58.031,13.265 C58.031,16.795 55.184,19.656 51.672,19.656 C48.160,19.656 45.312,16.795 45.312,13.265 C45.312,9.736 48.160,6.875 51.672,6.875 Z"/>
</g>
</svg>
