<svg 
 xmlns="http://www.w3.org/2000/svg"
 xmlns:xlink="http://www.w3.org/1999/xlink"
 width="51px" height="36.5px">
<defs>
<filter id="Filter_0">
    <feFlood flood-color="rgb(122, 122, 122)" flood-opacity="1" result="floodOut" />
    <feComposite operator="atop" in="floodOut" in2="SourceGraphic" result="compOut" />
    <feBlend mode="normal" in="compOut" in2="SourceGraphic" />
</filter>

</defs>
<g transform="translate(0, -0.5)">
<g filter="url(#Filter_0)">
<path fill-rule="evenodd"  fill="rgb(255, 255, 255)"
 d="M20.593,31.269 L20.593,32.889 L14.718,32.889 L14.718,31.269 L20.593,31.269 ZM28.177,31.269 L28.177,32.889 L22.302,32.889 L22.302,31.269 L28.177,31.269 ZM38.410,8.000 L38.415,2.728 L3.635,2.697 L3.612,28.005 L21.002,28.021 L34.219,28.033 L34.219,29.777 L21.000,29.765 L1.871,29.748 L1.869,32.003 L4.835,34.130 L34.219,34.156 L34.219,35.901 L4.113,35.873 L0.130,32.723 L0.134,28.002 L1.873,28.004 L1.897,0.952 L40.156,0.986 L40.149,8.000 L38.410,8.000 Z"/>
<path fill-rule="evenodd"  fill="rgb(255, 255, 255)"
 d="M31.125,12.702 C30.903,12.921 30.543,12.921 30.320,12.701 C25.507,7.941 17.674,7.941 12.860,12.701 C12.638,12.921 12.278,12.921 12.056,12.701 C11.833,12.481 11.833,12.125 12.055,11.905 C17.313,6.705 25.868,6.706 31.125,11.905 C31.347,12.126 31.347,12.482 31.125,12.702 ZM28.590,14.413 C28.812,14.633 28.813,14.988 28.590,15.208 C28.368,15.428 28.008,15.428 27.786,15.208 C24.369,11.829 18.810,11.829 15.394,15.208 C15.172,15.427 14.812,15.427 14.590,15.208 C14.368,14.988 14.367,14.632 14.589,14.412 C18.449,10.595 24.730,10.595 28.590,14.413 ZM25.774,17.197 C25.997,17.417 25.997,17.773 25.774,17.993 C25.552,18.213 25.192,18.213 24.969,17.993 C23.106,16.150 20.074,16.150 18.210,17.993 C17.988,18.212 17.628,18.212 17.406,17.992 C17.184,17.773 17.184,17.417 17.406,17.197 C19.713,14.916 23.467,14.916 25.774,17.197 ZM22.579,20.348 C23.124,20.888 23.124,21.765 22.579,22.304 C22.034,22.843 21.147,22.843 20.601,22.304 C20.056,21.765 20.056,20.888 20.601,20.349 C21.147,19.809 22.034,19.809 22.579,20.348 Z"/>
</g>
<path fill-rule="evenodd"  stroke-width="1px" stroke="rgb(133, 133, 133)" fill="rgb(133, 133, 133)"
 d="M48.516,36.767 L38.475,36.767 C37.507,36.767 36.719,35.965 36.719,34.981 L36.719,12.468 C36.719,11.484 37.507,10.683 38.475,10.683 L48.517,10.683 C49.485,10.683 50.273,11.484 50.273,12.468 L50.273,34.981 C50.273,35.965 49.485,36.767 48.516,36.767 ZM49.475,12.468 C49.475,11.931 49.045,11.494 48.516,11.494 L38.475,11.494 C37.946,11.494 37.516,11.931 37.516,12.468 L37.516,13.499 L49.475,13.499 L49.475,12.468 ZM49.475,14.309 L37.516,14.309 L37.516,31.961 L49.475,31.961 L49.475,14.309 ZM49.475,32.771 L37.516,32.771 L37.516,34.981 C37.516,35.519 37.946,35.956 38.475,35.956 L48.517,35.956 C49.045,35.956 49.475,35.519 49.475,34.981 L49.475,32.771 ZM43.453,35.203 C42.980,35.203 42.595,34.814 42.595,34.335 C42.595,33.856 42.980,33.467 43.453,33.467 C43.926,33.467 44.311,33.856 44.311,34.335 C44.311,34.814 43.926,35.203 43.453,35.203 ZM42.658,12.052 L44.253,12.052 C44.473,12.052 44.651,12.234 44.651,12.458 C44.651,12.682 44.473,12.863 44.253,12.863 L42.658,12.863 C42.438,12.863 42.260,12.682 42.260,12.458 C42.260,12.234 42.438,12.052 42.658,12.052 Z"/>
</g>
</svg>
