<svg 
 xmlns="http://www.w3.org/2000/svg"
 xmlns:xlink="http://www.w3.org/1999/xlink"
 width="52.5px" height="38px">
<defs>
<filter id="Filter_0">
    <feFlood flood-color="rgb(122, 122, 122)" flood-opacity="1" result="floodOut" />
    <feComposite operator="atop" in="floodOut" in2="SourceGraphic" result="compOut" />
    <feBlend mode="normal" in="compOut" in2="SourceGraphic" />
</filter>

</defs>
<g transform="translate(0, -3.5)">
<g filter="url(#Filter_0)">
<path fill-rule="evenodd"  fill="rgb(255, 255, 255)"
 d="M1.884,38.562 L47.053,38.562 C47.835,38.562 48.469,39.196 48.469,39.978 L48.469,39.991 C48.469,40.772 47.835,41.406 47.053,41.406 L1.884,41.406 C1.102,41.406 0.469,40.772 0.469,39.991 L0.469,39.978 C0.469,39.196 1.102,38.562 1.884,38.562 Z"/>
<path fill-rule="evenodd"  fill="rgb(255, 255, 255)"
 d="M7.047,25.625 C7.487,25.625 7.844,25.982 7.844,26.422 L7.844,37.766 C7.844,38.206 7.487,38.562 7.047,38.562 C6.607,38.562 6.250,38.206 6.250,37.766 L6.250,26.422 C6.250,25.982 6.607,25.625 7.047,25.625 Z"/>
<path fill-rule="evenodd"  fill="rgb(255, 255, 255)"
 d="M11.766,8.000 C12.206,8.000 12.562,8.357 12.562,8.797 L12.562,37.766 C12.562,38.206 12.206,38.562 11.766,38.562 C11.325,38.562 10.969,38.206 10.969,37.766 L10.969,8.797 C10.969,8.357 11.325,8.000 11.766,8.000 Z"/>
<path fill-rule="evenodd"  fill="rgb(255, 255, 255)"
 d="M16.528,19.750 L16.534,19.750 C16.964,19.750 17.312,20.098 17.312,20.528 L17.312,37.784 C17.312,38.214 16.964,38.562 16.534,38.562 L16.528,38.562 C16.098,38.562 15.750,38.214 15.750,37.784 L15.750,20.528 C15.750,20.098 16.098,19.750 16.528,19.750 Z"/>
<path fill-rule="evenodd"  fill="rgb(255, 255, 255)"
 d="M21.297,13.875 C21.737,13.875 22.094,14.232 22.094,14.672 L22.094,37.766 C22.094,38.206 21.737,38.562 21.297,38.562 C20.857,38.562 20.500,38.206 20.500,37.766 L20.500,14.672 C20.500,14.232 20.857,13.875 21.297,13.875 Z"/>
<path fill-rule="evenodd"  fill="rgb(255, 255, 255)"
 d="M26.431,25.625 L26.444,25.625 C26.889,25.625 27.250,25.986 27.250,26.431 L27.250,37.756 C27.250,38.201 26.889,38.562 26.444,38.562 L26.431,38.562 C25.986,38.562 25.625,38.201 25.625,37.756 L25.625,26.431 C25.625,25.986 25.986,25.625 26.431,25.625 Z"/>
<path fill-rule="evenodd"  fill="rgb(255, 255, 255)"
 d="M31.172,8.000 C31.612,8.000 31.969,8.357 31.969,8.797 L31.969,37.766 C31.969,38.206 31.612,38.562 31.172,38.562 C30.732,38.562 30.375,38.206 30.375,37.766 L30.375,8.797 C30.375,8.357 30.732,8.000 31.172,8.000 Z"/>
<path fill-rule="evenodd"  fill="rgb(255, 255, 255)"
 d="M35.934,19.750 L35.941,19.750 C36.370,19.750 36.719,20.098 36.719,20.528 L36.719,37.784 C36.719,38.214 36.370,38.562 35.941,38.562 L35.934,38.562 C35.505,38.562 35.156,38.214 35.156,37.784 L35.156,20.528 C35.156,20.098 35.505,19.750 35.934,19.750 Z"/>
<path fill-rule="evenodd"  fill="rgb(255, 255, 255)"
 d="M40.703,13.875 C41.143,13.875 41.500,14.232 41.500,14.672 L41.500,37.766 C41.500,38.206 41.143,38.562 40.703,38.562 C40.263,38.562 39.906,38.206 39.906,37.766 L39.906,14.672 C39.906,14.232 40.263,13.875 40.703,13.875 Z"/>
</g>
<path fill-rule="evenodd"  stroke-width="1px" stroke="rgb(122, 122, 122)" fill="rgb(255, 255, 255)"
 d="M44.156,4.469 C48.540,4.469 52.094,8.022 52.094,12.406 C52.094,16.790 48.540,20.344 44.156,20.344 C39.772,20.344 36.219,16.790 36.219,12.406 C36.219,8.022 39.772,4.469 44.156,4.469 Z"/>
<path fill-rule="evenodd"  fill="rgb(122, 122, 122)"
 d="M46.307,12.941 C46.272,12.816 46.229,12.707 46.178,12.615 C46.128,12.522 46.055,12.432 45.961,12.344 C45.867,12.256 45.782,12.185 45.707,12.131 C45.632,12.077 45.529,12.016 45.397,11.950 C45.266,11.883 45.163,11.833 45.086,11.800 C45.010,11.768 44.899,11.723 44.754,11.666 C44.626,11.615 44.530,11.576 44.467,11.549 C44.405,11.522 44.322,11.483 44.220,11.433 C44.117,11.384 44.041,11.340 43.990,11.301 C43.940,11.263 43.886,11.216 43.828,11.161 C43.771,11.105 43.731,11.046 43.707,10.984 C43.684,10.921 43.673,10.853 43.673,10.779 C43.673,10.585 43.754,10.428 43.918,10.305 C44.082,10.183 44.294,10.122 44.553,10.122 C44.668,10.122 44.785,10.138 44.904,10.171 C45.023,10.204 45.124,10.241 45.209,10.282 C45.294,10.323 45.374,10.369 45.449,10.418 C45.524,10.468 45.577,10.506 45.609,10.531 C45.640,10.557 45.660,10.574 45.668,10.583 C45.704,10.611 45.740,10.621 45.779,10.612 C45.820,10.609 45.851,10.587 45.873,10.544 L46.205,9.921 C46.238,9.865 46.231,9.810 46.184,9.759 C46.168,9.742 46.147,9.722 46.123,9.700 C46.098,9.677 46.045,9.636 45.963,9.576 C45.881,9.516 45.794,9.463 45.703,9.416 C45.611,9.369 45.492,9.321 45.346,9.273 C45.200,9.225 45.049,9.192 44.894,9.175 L44.894,8.424 C44.894,8.384 44.881,8.352 44.857,8.326 C44.832,8.300 44.801,8.288 44.762,8.288 L44.209,8.288 C44.174,8.288 44.143,8.301 44.117,8.328 C44.091,8.355 44.078,8.387 44.078,8.424 L44.078,9.192 C43.649,9.277 43.301,9.468 43.033,9.764 C42.766,10.059 42.632,10.403 42.632,10.796 C42.632,10.912 42.643,11.023 42.667,11.128 C42.690,11.233 42.719,11.328 42.753,11.412 C42.787,11.496 42.835,11.579 42.898,11.659 C42.961,11.740 43.020,11.810 43.076,11.869 C43.132,11.927 43.206,11.987 43.296,12.050 C43.386,12.113 43.463,12.163 43.527,12.201 C43.591,12.239 43.677,12.284 43.783,12.333 C43.890,12.383 43.974,12.421 44.035,12.446 C44.097,12.472 44.181,12.508 44.287,12.553 C44.435,12.613 44.544,12.659 44.615,12.692 C44.686,12.724 44.776,12.770 44.886,12.828 C44.995,12.886 45.075,12.940 45.125,12.988 C45.176,13.036 45.221,13.096 45.263,13.167 C45.304,13.238 45.324,13.314 45.324,13.393 C45.324,13.618 45.240,13.791 45.072,13.914 C44.904,14.036 44.709,14.097 44.488,14.097 C44.387,14.097 44.286,14.086 44.185,14.063 C43.830,13.989 43.498,13.811 43.189,13.530 L43.181,13.521 C43.157,13.490 43.124,13.477 43.083,13.483 C43.039,13.489 43.008,13.506 42.989,13.534 L42.567,14.110 C42.526,14.167 42.528,14.225 42.575,14.285 C42.588,14.302 42.612,14.328 42.647,14.362 C42.681,14.396 42.744,14.449 42.837,14.522 C42.930,14.594 43.031,14.662 43.140,14.727 C43.249,14.790 43.388,14.854 43.556,14.916 C43.724,14.979 43.898,15.023 44.078,15.048 L44.078,15.795 C44.078,15.832 44.092,15.864 44.117,15.891 C44.143,15.918 44.174,15.931 44.210,15.931 L44.763,15.931 C44.801,15.931 44.832,15.919 44.857,15.893 C44.882,15.868 44.894,15.835 44.894,15.795 L44.894,15.048 C45.328,14.974 45.681,14.780 45.953,14.466 C46.225,14.152 46.361,13.777 46.361,13.342 C46.361,13.200 46.343,13.066 46.307,12.941 Z"/>
</g>
</svg>
