<svg 
 xmlns="http://www.w3.org/2000/svg"
 xmlns:xlink="http://www.w3.org/1999/xlink"
 width="60.5px" height="45.5px">
<defs>
<filter id="Filter_0">
    <feFlood flood-color="rgb(122, 122, 122)" flood-opacity="1" result="floodOut" />
    <feComposite operator="atop" in="floodOut" in2="SourceGraphic" result="compOut" />
    <feBlend mode="normal" in="compOut" in2="SourceGraphic" />
</filter>

</defs>
<g filter="url(#Filter_0)" transform="translate(0, -3.5)">
<path fill-rule="evenodd"  fill="rgb(255, 255, 255)"
 d="M1.687,46.031 L46.875,46.031 C47.652,46.031 48.281,46.661 48.281,47.437 C48.281,48.214 47.652,48.844 46.875,48.844 L1.687,48.844 C0.911,48.844 0.281,48.214 0.281,47.437 C0.281,46.661 0.911,46.031 1.687,46.031 Z"/>
<path fill-rule="evenodd"  fill="rgb(255, 255, 255)"
 d="M30.464,26.690 C30.874,26.280 30.874,25.623 30.464,25.213 L25.401,20.154 C25.208,19.960 24.937,19.844 24.666,19.844 C24.395,19.844 24.124,19.953 23.931,20.154 L18.868,25.213 C18.458,25.623 18.458,26.280 18.868,26.690 C19.069,26.891 19.340,26.999 19.603,26.999 C19.866,26.999 20.137,26.899 20.339,26.690 L23.621,23.410 L23.621,46.645 C23.621,47.226 24.086,47.690 24.666,47.690 C25.246,47.690 25.711,47.226 25.711,46.645 L25.711,23.410 L28.993,26.690 C29.396,27.100 30.053,27.100 30.464,26.690 Z"/>
<path fill-rule="evenodd"  fill="rgb(255, 255, 255)"
 d="M36.678,32.966 L30.281,32.966 L30.281,31.358 L36.678,31.358 C40.162,31.358 42.998,28.524 42.998,25.041 C42.998,21.558 40.633,18.255 37.148,18.255 C36.936,18.255 36.720,18.266 36.506,18.287 C36.270,18.310 36.036,18.229 35.865,18.064 C35.695,17.899 35.607,17.667 35.623,17.430 L35.629,17.348 C35.643,17.154 35.656,16.971 35.656,16.794 C35.656,11.865 29.997,8.325 25.065,8.325 C22.891,8.325 20.796,9.116 19.167,10.551 C17.553,11.973 15.328,13.925 15.038,16.047 C14.980,16.474 14.595,16.781 14.166,16.739 C13.913,16.715 13.685,16.704 13.470,16.704 C9.427,16.704 6.138,19.991 6.138,24.031 C6.138,28.071 9.427,31.358 13.470,31.358 L19.500,31.358 L19.500,32.966 L13.470,32.966 C8.540,32.966 4.529,28.958 4.529,24.031 C4.529,19.104 8.540,15.096 13.470,15.096 C13.503,15.096 13.537,15.096 13.571,15.096 C14.036,12.878 16.386,10.857 18.103,9.345 C20.026,7.651 22.499,6.718 25.066,6.718 C30.836,6.718 37.186,10.899 37.265,16.648 C41.583,16.710 44.607,20.711 44.607,25.042 C44.607,29.411 41.050,32.966 36.678,32.966 Z"/>
<path fill-rule="evenodd"  stroke-width="1px" stroke="rgb(255, 255, 255)" fill="rgb(255, 255, 255)"
 d="M56.800,8.945 C56.764,6.240 53.878,4.272 51.254,4.272 C50.087,4.272 48.963,4.712 48.089,5.509 C47.308,6.221 46.240,7.171 46.028,8.215 C46.013,8.215 45.998,8.215 45.982,8.215 C43.741,8.215 41.918,10.101 41.918,12.419 C41.918,14.738 43.741,16.624 45.982,16.624 L56.533,16.624 C58.521,16.624 60.138,14.951 60.138,12.895 C60.138,10.857 58.764,8.975 56.800,8.945 ZM56.533,15.867 L45.982,15.867 C44.145,15.867 42.649,14.321 42.649,12.419 C42.649,10.518 44.145,8.972 45.982,8.972 C46.080,8.972 46.184,8.977 46.299,8.988 C46.494,9.008 46.669,8.864 46.696,8.663 C46.827,7.664 47.839,6.746 48.572,6.077 C49.313,5.401 50.265,5.029 51.254,5.029 C53.496,5.029 56.069,6.695 56.069,9.014 C56.069,9.097 56.063,9.184 56.057,9.275 L56.054,9.314 C56.046,9.425 56.087,9.534 56.164,9.612 C56.242,9.689 56.348,9.728 56.456,9.717 C56.553,9.706 56.651,9.701 56.747,9.701 C58.332,9.701 59.407,11.256 59.407,12.895 C59.407,14.534 58.118,15.867 56.533,15.867 Z"/>
<path fill-rule="evenodd"  fill="rgb(255, 255, 255)"
 d="M31.875,38.219 L27.156,38.219 L27.156,36.344 L31.875,36.344 C32.393,36.344 32.812,36.763 32.812,37.281 C32.812,37.799 32.393,38.219 31.875,38.219 ZM22.062,38.219 L17.281,38.219 C16.763,38.219 16.344,37.799 16.344,37.281 C16.344,36.763 16.763,36.344 17.281,36.344 L22.062,36.344 L22.062,38.219 ZM20.094,39.219 L22.062,39.219 L22.062,41.094 L20.094,41.094 C19.576,41.094 19.156,40.674 19.156,40.156 C19.156,39.638 19.576,39.219 20.094,39.219 ZM27.156,39.219 L29.031,39.219 C29.549,39.219 29.969,39.638 29.969,40.156 C29.969,40.674 29.549,41.094 29.031,41.094 L27.156,41.094 L27.156,39.219 Z"/>
</g>
</svg>
