<svg 
 xmlns="http://www.w3.org/2000/svg"
 xmlns:xlink="http://www.w3.org/1999/xlink"
 width="47px" height="45.5px">
<defs>
<filter id="Filter_0">
    <feFlood flood-color="rgb(122, 122, 122)" flood-opacity="1" result="floodOut" />
    <feComposite operator="atop" in="floodOut" in2="SourceGraphic" result="compOut" />
    <feBlend mode="normal" in="compOut" in2="SourceGraphic" />
</filter>

</defs>
<g filter="url(#Filter_0)" transform="translate(0, -2.5)">
<path fill-rule="evenodd"  fill="rgb(255, 255, 255)"
 d="M9.391,9.000 C9.762,9.000 10.062,9.301 10.062,9.672 L10.062,14.016 C10.062,14.387 9.762,14.687 9.391,14.687 C9.020,14.687 8.719,14.387 8.719,14.016 L8.719,9.672 C8.719,9.301 9.020,9.000 9.391,9.000 Z"/>
<path fill-rule="evenodd"  fill="rgb(255, 255, 255)"
 d="M13.495,9.000 L13.505,9.000 C13.882,9.000 14.187,9.305 14.187,9.682 L14.187,14.005 C14.187,14.382 13.882,14.687 13.505,14.687 L13.495,14.687 C13.118,14.687 12.812,14.382 12.812,14.005 L12.812,9.682 C12.812,9.305 13.118,9.000 13.495,9.000 Z"/>
<path fill-rule="evenodd"  fill="rgb(255, 255, 255)"
 d="M17.574,9.000 L17.582,9.000 C17.951,9.000 18.250,9.299 18.250,9.668 L18.250,14.019 C18.250,14.388 17.951,14.687 17.582,14.687 L17.574,14.687 C17.205,14.687 16.906,14.388 16.906,14.019 L16.906,9.668 C16.906,9.299 17.205,9.000 17.574,9.000 Z"/>
<path fill-rule="evenodd"  fill="rgb(255, 255, 255)"
 d="M21.682,9.000 L21.692,9.000 C22.069,9.000 22.375,9.305 22.375,9.682 L22.375,14.005 C22.375,14.382 22.069,14.687 21.692,14.687 L21.682,14.687 C21.305,14.687 21.000,14.382 21.000,14.005 L21.000,9.682 C21.000,9.305 21.305,9.000 21.682,9.000 Z"/>
<path fill-rule="evenodd"  fill="rgb(255, 255, 255)"
 d="M9.391,17.531 C9.762,17.531 10.062,17.832 10.062,18.203 L10.062,22.547 C10.062,22.918 9.762,23.219 9.391,23.219 C9.020,23.219 8.719,22.918 8.719,22.547 L8.719,18.203 C8.719,17.832 9.020,17.531 9.391,17.531 Z"/>
<path fill-rule="evenodd"  fill="rgb(255, 255, 255)"
 d="M13.495,17.531 L13.505,17.531 C13.882,17.531 14.187,17.837 14.187,18.214 L14.187,22.536 C14.187,22.913 13.882,23.219 13.505,23.219 L13.495,23.219 C13.118,23.219 12.812,22.913 12.812,22.536 L12.812,18.214 C12.812,17.837 13.118,17.531 13.495,17.531 Z"/>
<path fill-rule="evenodd"  fill="rgb(255, 255, 255)"
 d="M17.574,17.531 L17.582,17.531 C17.951,17.531 18.250,17.830 18.250,18.199 L18.250,22.550 C18.250,22.919 17.951,23.219 17.582,23.219 L17.574,23.219 C17.205,23.219 16.906,22.919 16.906,22.550 L16.906,18.199 C16.906,17.830 17.205,17.531 17.574,17.531 Z"/>
<path fill-rule="evenodd"  fill="rgb(255, 255, 255)"
 d="M21.682,17.531 L21.692,17.531 C22.069,17.531 22.375,17.837 22.375,18.214 L22.375,22.536 C22.375,22.913 22.069,23.219 21.692,23.219 L21.682,23.219 C21.305,23.219 21.000,22.913 21.000,22.536 L21.000,18.214 C21.000,17.837 21.305,17.531 21.682,17.531 Z"/>
<path fill-rule="evenodd"  fill="rgb(255, 255, 255)"
 d="M9.391,26.062 C9.762,26.062 10.062,26.363 10.062,26.734 L10.062,31.078 C10.062,31.449 9.762,31.750 9.391,31.750 C9.020,31.750 8.719,31.449 8.719,31.078 L8.719,26.734 C8.719,26.363 9.020,26.062 9.391,26.062 Z"/>
<path fill-rule="evenodd"  fill="rgb(255, 255, 255)"
 d="M13.495,26.062 L13.505,26.062 C13.882,26.062 14.187,26.368 14.187,26.745 L14.187,31.067 C14.187,31.444 13.882,31.750 13.505,31.750 L13.495,31.750 C13.118,31.750 12.812,31.444 12.812,31.067 L12.812,26.745 C12.812,26.368 13.118,26.062 13.495,26.062 Z"/>
<path fill-rule="evenodd"  fill="rgb(255, 255, 255)"
 d="M17.574,26.062 L17.582,26.062 C17.951,26.062 18.250,26.362 18.250,26.731 L18.250,31.082 C18.250,31.451 17.951,31.750 17.582,31.750 L17.574,31.750 C17.205,31.750 16.906,31.451 16.906,31.082 L16.906,26.731 C16.906,26.362 17.205,26.062 17.574,26.062 Z"/>
<path fill-rule="evenodd"  fill="rgb(255, 255, 255)"
 d="M21.682,26.062 L21.692,26.062 C22.069,26.062 22.375,26.368 22.375,26.745 L22.375,31.067 C22.375,31.444 22.069,31.750 21.692,31.750 L21.682,31.750 C21.305,31.750 21.000,31.444 21.000,31.067 L21.000,26.745 C21.000,26.368 21.305,26.062 21.682,26.062 Z"/>
<path fill-rule="evenodd"  fill="rgb(255, 255, 255)"
 d="M9.391,34.594 C9.762,34.594 10.062,34.895 10.062,35.266 L10.062,39.609 C10.062,39.980 9.762,40.281 9.391,40.281 C9.020,40.281 8.719,39.980 8.719,39.609 L8.719,35.266 C8.719,34.895 9.020,34.594 9.391,34.594 Z"/>
<path fill-rule="evenodd"  fill="rgb(255, 255, 255)"
 d="M13.495,34.594 L13.505,34.594 C13.882,34.594 14.187,34.899 14.187,35.276 L14.187,39.599 C14.187,39.976 13.882,40.281 13.505,40.281 L13.495,40.281 C13.118,40.281 12.812,39.976 12.812,39.599 L12.812,35.276 C12.812,34.899 13.118,34.594 13.495,34.594 Z"/>
<path fill-rule="evenodd"  fill="rgb(255, 255, 255)"
 d="M17.574,34.594 L17.582,34.594 C17.951,34.594 18.250,34.893 18.250,35.262 L18.250,39.613 C18.250,39.982 17.951,40.281 17.582,40.281 L17.574,40.281 C17.205,40.281 16.906,39.982 16.906,39.613 L16.906,35.262 C16.906,34.893 17.205,34.594 17.574,34.594 Z"/>
<path fill-rule="evenodd"  fill="rgb(255, 255, 255)"
 d="M21.682,34.594 L21.692,34.594 C22.069,34.594 22.375,34.899 22.375,35.276 L22.375,39.599 C22.375,39.976 22.069,40.281 21.692,40.281 L21.682,40.281 C21.305,40.281 21.000,39.976 21.000,39.599 L21.000,35.276 C21.000,34.899 21.305,34.594 21.682,34.594 Z"/>
<path fill-rule="evenodd"  stroke-width="1px" stroke="rgb(255, 255, 255)" fill-opacity="0" fill="rgb(74, 183, 195)"
 d="M6.812,3.437 L23.562,3.437 C25.219,3.437 26.562,4.781 26.562,6.437 L26.562,43.187 C26.562,44.844 25.219,46.187 23.562,46.187 L6.812,46.187 C5.156,46.187 3.812,44.844 3.812,43.187 L3.812,6.437 C3.812,4.781 5.156,3.437 6.812,3.437 Z"/>
<path fill-rule="evenodd"  stroke-width="1px" stroke="rgb(255, 255, 255)" fill-opacity="0" fill="rgb(74, 183, 195)"
 d="M28.656,19.344 L39.500,19.344 C41.157,19.344 42.500,20.687 42.500,22.344 L42.500,43.187 C42.500,44.844 41.157,46.187 39.500,46.187 L28.656,46.187 C26.999,46.187 25.656,44.844 25.656,43.187 L25.656,22.344 C25.656,20.687 26.999,19.344 28.656,19.344 Z"/>
<path fill-rule="evenodd"  fill="rgb(255, 255, 255)"
 d="M30.293,24.719 L30.301,24.719 C30.583,24.719 30.812,24.948 30.812,25.231 L30.812,30.801 C30.812,31.083 30.583,31.312 30.301,31.312 L30.293,31.312 C30.010,31.312 29.781,31.083 29.781,30.801 L29.781,25.231 C29.781,24.948 30.010,24.719 30.293,24.719 Z"/>
<path fill-rule="evenodd"  fill="rgb(255, 255, 255)"
 d="M32.969,24.719 C33.245,24.719 33.469,24.943 33.469,25.219 L33.469,30.812 C33.469,31.089 33.245,31.312 32.969,31.312 C32.693,31.312 32.469,31.089 32.469,30.812 L32.469,25.219 C32.469,24.943 32.693,24.719 32.969,24.719 Z"/>
<path fill-rule="evenodd"  fill="rgb(255, 255, 255)"
 d="M35.605,24.719 L35.613,24.719 C35.896,24.719 36.125,24.948 36.125,25.231 L36.125,30.801 C36.125,31.083 35.896,31.312 35.613,31.312 L35.605,31.312 C35.323,31.312 35.094,31.083 35.094,30.801 L35.094,25.231 C35.094,24.948 35.323,24.719 35.605,24.719 Z"/>
<path fill-rule="evenodd"  fill="rgb(255, 255, 255)"
 d="M38.297,24.719 C38.582,24.719 38.812,24.950 38.812,25.234 L38.812,30.797 C38.812,31.082 38.582,31.312 38.297,31.312 C38.012,31.312 37.781,31.082 37.781,30.797 L37.781,25.234 C37.781,24.950 38.012,24.719 38.297,24.719 Z"/>
<path fill-rule="evenodd"  fill="rgb(255, 255, 255)"
 d="M30.293,33.344 L30.301,33.344 C30.583,33.344 30.812,33.573 30.812,33.856 L30.812,39.394 C30.812,39.677 30.583,39.906 30.301,39.906 L30.293,39.906 C30.010,39.906 29.781,39.677 29.781,39.394 L29.781,33.856 C29.781,33.573 30.010,33.344 30.293,33.344 Z"/>
<path fill-rule="evenodd"  fill="rgb(255, 255, 255)"
 d="M32.969,33.344 C33.245,33.344 33.469,33.568 33.469,33.844 L33.469,39.406 C33.469,39.682 33.245,39.906 32.969,39.906 C32.693,39.906 32.469,39.682 32.469,39.406 L32.469,33.844 C32.469,33.568 32.693,33.344 32.969,33.344 Z"/>
<path fill-rule="evenodd"  fill="rgb(255, 255, 255)"
 d="M35.605,33.344 L35.613,33.344 C35.896,33.344 36.125,33.573 36.125,33.856 L36.125,39.394 C36.125,39.677 35.896,39.906 35.613,39.906 L35.605,39.906 C35.323,39.906 35.094,39.677 35.094,39.394 L35.094,33.856 C35.094,33.573 35.323,33.344 35.605,33.344 Z"/>
<path fill-rule="evenodd"  fill="rgb(255, 255, 255)"
 d="M38.297,33.344 C38.582,33.344 38.812,33.575 38.812,33.859 L38.812,39.391 C38.812,39.675 38.582,39.906 38.297,39.906 C38.012,39.906 37.781,39.675 37.781,39.391 L37.781,33.859 C37.781,33.575 38.012,33.344 38.297,33.344 Z"/>
<path fill-rule="evenodd"  fill="rgb(255, 255, 255)"
 d="M1.641,44.844 L45.359,44.844 C46.110,44.844 46.719,45.452 46.719,46.203 C46.719,46.954 46.110,47.562 45.359,47.562 L1.641,47.562 C0.890,47.562 0.281,46.954 0.281,46.203 C0.281,45.452 0.890,44.844 1.641,44.844 Z"/>
</g>
</svg>
