<svg 
 xmlns="http://www.w3.org/2000/svg"
 xmlns:xlink="http://www.w3.org/1999/xlink"
 width="48px" height="48px">
<defs>
<filter id="Filter_0">
    <feFlood flood-color="rgb(122, 122, 122)" flood-opacity="1" result="floodOut" />
    <feComposite operator="atop" in="floodOut" in2="SourceGraphic" result="compOut" />
    <feBlend mode="normal" in="compOut" in2="SourceGraphic" />
</filter>

</defs>
<g transform="translate(-3, -3)">
<g filter="url(#Filter_0)">
<path fill-rule="evenodd"  stroke-width="1px" stroke="rgb(255, 255, 255)" fill="rgb(255, 255, 255)"
 d="M49.903,31.869 C49.006,36.191 46.888,40.142 43.797,43.309 C39.475,47.727 33.693,50.208 27.510,50.275 C27.415,50.275 27.329,50.275 27.234,50.275 C21.156,50.275 15.422,47.937 11.062,43.682 L10.413,43.052 L10.451,46.392 C10.461,46.706 10.203,46.974 9.888,46.974 C9.879,46.974 9.879,46.974 9.879,46.974 C9.564,46.974 9.306,46.725 9.306,46.411 L9.249,41.687 C9.239,41.372 9.497,41.105 9.812,41.105 L14.535,41.048 C14.859,41.048 15.117,41.296 15.117,41.611 C15.126,41.926 14.869,42.193 14.554,42.193 L11.214,42.231 L11.863,42.861 C16.061,46.974 21.614,49.197 27.491,49.130 C33.369,49.063 38.864,46.716 42.976,42.508 C48.911,36.430 50.819,27.680 47.947,19.675 C47.842,19.379 47.995,19.045 48.291,18.940 C48.586,18.835 48.920,18.988 49.025,19.283 C50.466,23.310 50.771,27.661 49.903,31.869 ZM44.665,13.138 L39.942,13.196 C39.933,13.196 39.933,13.196 39.933,13.196 C39.618,13.196 39.360,12.947 39.360,12.633 C39.351,12.318 39.608,12.051 39.923,12.051 L43.262,12.013 L42.614,11.383 C38.416,7.270 32.863,5.037 26.986,5.114 C21.108,5.181 15.603,7.528 11.501,11.736 C5.557,17.814 3.648,26.564 6.511,34.569 C6.616,34.865 6.463,35.199 6.167,35.304 C6.110,35.333 6.043,35.342 5.976,35.342 C5.747,35.342 5.528,35.199 5.442,34.960 C4.001,30.924 3.696,26.573 4.574,22.375 C5.471,18.052 7.579,14.102 10.680,10.934 C15.002,6.516 20.784,4.035 26.967,3.969 C33.149,3.893 38.988,6.240 43.415,10.562 L44.064,11.192 L44.026,7.852 C44.016,7.537 44.274,7.270 44.589,7.270 C44.598,7.270 44.598,7.270 44.598,7.270 C44.913,7.270 45.171,7.518 45.171,7.833 L45.228,12.556 C45.238,12.871 44.980,13.138 44.665,13.138 Z"/>
<path fill-rule="evenodd"  fill="rgb(255, 255, 255)"
 d="M37.392,33.135 C33.919,39.215 26.141,41.332 20.053,37.855 C13.965,34.377 11.838,26.602 15.312,20.521 C18.785,14.441 26.563,12.324 32.651,15.802 C38.738,19.280 40.865,27.055 37.392,33.135 ZM35.907,32.287 C36.157,31.848 36.374,31.399 36.558,30.943 L32.804,29.251 L29.539,31.344 L32.412,36.008 C33.812,35.089 35.021,33.837 35.907,32.287 ZM26.737,37.797 L26.573,34.372 L25.290,34.253 L22.861,37.232 C24.131,37.659 25.441,37.843 26.737,37.797 ZM17.609,20.146 C17.315,20.531 17.043,20.939 16.797,21.370 C14.732,24.985 14.954,29.294 17.005,32.612 L19.710,30.842 L21.276,29.441 L22.315,27.527 L18.076,24.115 C17.917,23.976 17.815,23.785 17.789,23.576 L18.227,20.233 L17.609,20.146 ZM31.803,17.285 C29.981,16.244 29.281,15.664 27.324,15.723 L26.063,17.450 L27.776,19.363 C27.955,19.564 28.030,19.837 27.978,20.101 L27.471,22.639 L26.590,24.907 C26.657,25.040 26.688,25.188 26.680,25.336 L26.583,27.100 L27.512,26.131 L31.037,24.258 C31.150,24.062 31.336,23.918 31.555,23.858 L36.464,22.522 C35.555,20.388 33.969,18.522 31.803,17.285 ZM37.011,24.145 L32.348,25.414 L28.945,27.071 C28.910,27.132 28.868,27.188 28.820,27.238 L26.485,29.487 C26.244,29.738 25.864,29.818 25.542,29.686 C25.209,29.548 24.994,29.207 25.013,28.848 L24.960,25.468 L25.811,23.141 C25.726,22.971 25.700,22.778 25.737,22.591 L26.217,20.184 L24.578,18.354 C24.442,18.202 24.365,18.006 24.360,17.802 L25.617,15.908 C23.671,16.273 20.535,17.276 19.025,18.619 L19.112,18.631 C19.495,18.685 19.795,18.988 19.843,19.372 L19.444,23.041 L23.633,26.409 C23.760,26.520 23.852,26.666 23.896,26.829 L23.065,29.502 C23.150,29.814 23.052,30.148 22.811,30.363 L20.663,32.284 C20.540,32.394 20.388,32.466 20.225,32.491 L18.163,34.161 C18.931,35.019 19.847,35.769 20.900,36.371 C21.096,36.483 21.298,36.568 21.498,36.666 L23.663,33.446 L25.224,32.004 L27.684,33.287 L28.323,37.637 C29.174,37.482 30.006,37.232 30.799,36.884 L30.714,36.206 C30.712,36.190 30.710,36.175 30.709,36.159 L27.808,31.108 C27.793,30.882 27.867,30.659 28.016,30.489 L31.888,27.700 C32.115,27.439 32.476,27.341 32.803,27.450 L37.071,29.314 C37.469,27.591 37.435,25.818 37.011,24.145 Z"/>
</g>
<path fill-rule="evenodd"  stroke-width="1px" stroke="rgb(122, 122, 122)" fill="rgb(255, 255, 255)"
 d="M37.219,17.281 C41.361,17.281 44.719,20.632 44.719,24.766 C44.719,28.899 41.361,32.250 37.219,32.250 C33.077,32.250 29.719,28.899 29.719,24.766 C29.719,20.632 33.077,17.281 37.219,17.281 Z"/>
<text kerning="auto" font-family="GESerif" fill="rgb(122, 122, 122)" transform="matrix( 0.588, 0, 0, 0.58800003480911,34.59675, 26.5577061218145)" font-weight="bold" font-size="15px">&#64;</text>
</g>
</svg>
