<svg 
 xmlns="http://www.w3.org/2000/svg"
 xmlns:xlink="http://www.w3.org/1999/xlink"
 width="87px" height="76.5px">
<g transform="translate(-0.5, -2)">
<path fill-rule="evenodd"  stroke-width="3px" stroke="rgb(122, 122, 122)" fill-opacity="0" fill="rgb(74, 183, 195)"
 d="M15.414,3.831 C34.436,3.831 53.465,3.831 72.488,3.831 C72.125,7.180 71.049,10.483 70.445,14.245 C70.354,19.177 70.263,24.111 70.172,29.044 C70.218,39.228 70.263,40.679 70.309,50.864 C68.175,53.010 66.040,55.157 63.906,57.304 C57.578,63.670 51.203,70.940 44.019,76.351 C43.928,76.351 43.837,76.351 43.746,76.351 C41.749,74.524 39.751,72.696 37.753,70.869 C31.034,64.156 24.312,57.440 17.593,50.726 C17.593,43.100 17.593,44.207 17.593,36.580 C17.593,31.602 17.593,26.623 17.593,21.644 C17.502,18.630 17.411,15.615 17.321,12.601 C16.685,9.677 16.049,6.754 15.414,3.831 Z"/>
<path fill-rule="evenodd"  fill="rgb(122, 122, 122)"
 d="M8.781,11.656 L10.750,11.656 L10.750,52.844 L8.781,52.844 L8.781,11.656 Z"/>
<path fill-rule="evenodd"  fill="rgb(122, 122, 122)"
 d="M0.937,15.594 L2.906,15.594 L2.906,56.750 L0.937,56.750 L0.937,15.594 Z"/>
<path fill-rule="evenodd"  fill="rgb(122, 122, 122)"
 d="M77.375,11.656 L79.344,11.656 L79.344,52.844 L77.375,52.844 L77.375,11.656 Z"/>
<path fill-rule="evenodd"  fill="rgb(122, 122, 122)"
 d="M85.219,15.594 L87.187,15.594 L87.187,56.750 L85.219,56.750 L85.219,15.594 Z"/>
<path fill-rule="evenodd"  stroke-width="3px" stroke="rgb(122, 122, 122)" fill-opacity="0" fill="rgb(74, 183, 195)"
 d="M43.953,17.781 C52.557,17.781 59.531,24.826 59.531,33.515 C59.531,42.205 52.557,49.250 43.953,49.250 C35.350,49.250 28.375,42.205 28.375,33.515 C28.375,24.826 35.350,17.781 43.953,17.781 Z"/>
<path fill-rule="evenodd"  fill="rgb(122, 122, 122)"
 d="M37.754,33.744 L36.168,35.354 L41.267,40.527 L52.598,29.031 L51.012,27.421 L41.267,37.308 L37.754,33.744 Z"/>
</g>
</svg>
