<svg 
 xmlns="http://www.w3.org/2000/svg"
 xmlns:xlink="http://www.w3.org/1999/xlink"
 width="22.5px" height="20.5px">
<g transform="translate(-2.5, -2.5)">
<path fill-rule="evenodd"  stroke-width="1px" stroke="rgb(255, 255, 255)" fill="rgb(255, 255, 255)"
 d="M22.803,5.264 C21.704,4.132 20.248,3.514 18.694,3.514 C17.141,3.514 15.681,4.137 14.581,5.268 L14.007,5.859 L13.423,5.259 C12.324,4.128 10.859,3.500 9.305,3.500 C7.756,3.500 6.296,4.123 5.201,5.250 C4.101,6.382 3.496,7.884 3.500,9.483 C3.500,11.083 4.110,12.581 5.210,13.712 L13.570,22.317 C13.686,22.436 13.842,22.500 13.993,22.500 C14.145,22.500 14.300,22.440 14.416,22.321 L22.795,13.731 C23.894,12.599 24.500,11.096 24.500,9.497 C24.504,7.898 23.903,6.395 22.803,5.264 ZM21.949,12.855 L13.993,21.011 L6.056,12.842 C5.183,11.944 4.702,10.752 4.702,9.483 C4.702,8.214 5.179,7.023 6.051,6.130 C6.919,5.236 8.077,4.742 9.305,4.742 C10.539,4.742 11.701,5.236 12.573,6.134 L13.579,7.170 C13.815,7.412 14.194,7.412 14.430,7.170 L15.427,6.143 C16.299,5.245 17.461,4.751 18.690,4.751 C19.919,4.751 21.076,5.245 21.949,6.139 C22.821,7.037 23.298,8.228 23.298,9.497 C23.302,10.766 22.821,11.958 21.949,12.855 Z"/>
</g>
</svg>
