<svg 
 xmlns="http://www.w3.org/2000/svg"
 xmlns:xlink="http://www.w3.org/1999/xlink"
 width="28px" height="25px">
<g transform="translate(-1, -0.5)">
<path fill-rule="evenodd"  fill="rgb(85, 85, 85)"
 d="M13.600,17.589 C13.256,17.941 13.256,18.509 13.600,18.859 C13.944,19.211 14.501,19.211 14.844,18.859 L19.897,13.679 C20.080,13.492 20.158,13.243 20.146,12.999 C20.158,12.754 20.080,12.506 19.897,12.319 L14.844,7.139 C14.501,6.788 13.943,6.788 13.600,7.139 C13.256,7.491 13.256,8.059 13.600,8.410 L17.195,12.102 L1.799,12.102 C1.313,12.102 0.919,12.504 0.919,13.000 C0.919,13.496 1.313,13.898 1.799,13.898 L17.195,13.898 L13.600,17.589 ZM25.560,0.423 L7.959,0.423 C6.016,0.423 4.439,2.031 4.439,4.016 L4.439,6.428 L6.199,6.428 L6.199,4.016 C6.199,3.024 6.987,2.219 7.959,2.219 L25.560,2.219 C26.533,2.219 27.320,3.024 27.320,4.016 L27.320,21.984 C27.320,22.975 26.533,23.781 25.560,23.781 L7.959,23.781 C6.987,23.781 6.199,22.977 6.199,21.984 L6.199,19.571 L4.439,19.571 L4.439,21.984 C4.439,23.968 6.016,25.577 7.959,25.577 L25.560,25.577 C27.504,25.577 29.080,23.968 29.080,21.984 L29.080,4.016 C29.080,2.031 27.504,0.423 25.560,0.423 Z"/>
</g>
</svg>
