<svg 
 xmlns="http://www.w3.org/2000/svg"
 xmlns:xlink="http://www.w3.org/1999/xlink"
 width="26px" height="34px">
<path fill-rule="evenodd"  fill="rgb(85, 85, 85)"
 d="M22.612,33.972 L3.387,33.972 C1.618,33.972 0.184,32.539 0.184,30.771 L0.184,11.566 C0.184,9.799 1.618,8.366 3.387,8.366 L8.844,8.366 L8.844,9.966 L6.144,9.966 L4.541,9.966 L3.387,9.966 C2.502,9.966 1.786,10.683 1.786,11.566 L1.786,30.771 C1.786,31.656 2.502,32.372 3.387,32.372 L22.612,32.372 C23.497,32.372 24.214,31.656 24.214,30.771 L24.214,11.566 C24.214,10.683 23.497,9.966 22.612,9.966 L21.458,9.966 L19.856,9.966 L17.281,9.966 L17.281,8.366 L22.612,8.366 C24.381,8.366 25.816,9.799 25.816,11.566 L25.816,30.771 C25.816,32.539 24.381,33.972 22.612,33.972 Z"/>
<path fill-rule="evenodd"  fill="rgb(85, 85, 85)"
 d="M9.667,5.267 C9.334,5.594 8.795,5.594 8.463,5.267 C8.130,4.939 8.130,4.408 8.463,4.082 L12.378,0.267 C12.556,0.093 12.791,0.018 13.023,0.030 C13.256,0.018 13.491,0.093 13.668,0.267 L17.583,4.082 C17.915,4.408 17.915,4.940 17.583,5.267 C17.249,5.594 16.710,5.594 16.378,5.267 L13.874,2.839 L13.874,12.546 C13.874,13.008 13.492,13.383 13.022,13.383 C12.552,13.383 12.171,13.008 12.171,12.546 L12.171,2.839 L9.667,5.267 Z"/>
<path fill-rule="evenodd"  fill="rgb(85, 85, 85)"
 d="M5.172,15.625 L20.828,15.625 C21.268,15.625 21.625,15.982 21.625,16.422 C21.625,16.862 21.268,17.219 20.828,17.219 L5.172,17.219 C4.732,17.219 4.375,16.862 4.375,16.422 C4.375,15.982 4.732,15.625 5.172,15.625 Z"/>
<path fill-rule="evenodd"  fill="rgb(85, 85, 85)"
 d="M5.182,19.531 L20.818,19.531 C21.264,19.531 21.625,19.892 21.625,20.338 L21.625,20.349 C21.625,20.795 21.264,21.156 20.818,21.156 L5.182,21.156 C4.736,21.156 4.375,20.795 4.375,20.349 L4.375,20.338 C4.375,19.892 4.736,19.531 5.182,19.531 Z"/>
<path fill-rule="evenodd"  fill="rgb(85, 85, 85)"
 d="M5.182,23.500 L20.818,23.500 C21.264,23.500 21.625,23.861 21.625,24.306 L21.625,24.318 C21.625,24.764 21.264,25.125 20.818,25.125 L5.182,25.125 C4.736,25.125 4.375,24.764 4.375,24.318 L4.375,24.306 C4.375,23.861 4.736,23.500 5.182,23.500 Z"/>
<path fill-rule="evenodd"  fill="rgb(85, 85, 85)"
 d="M5.156,27.437 L14.750,27.437 C15.181,27.437 15.531,27.787 15.531,28.219 C15.531,28.650 15.181,29.000 14.750,29.000 L5.156,29.000 C4.725,29.000 4.375,28.650 4.375,28.219 C4.375,27.787 4.725,27.437 5.156,27.437 Z"/>
</svg>
