<svg 
 xmlns="http://www.w3.org/2000/svg"
 xmlns:xlink="http://www.w3.org/1999/xlink"
 width="19px" height="16px">
<path fill-rule="evenodd"  fill="rgb(255, 255, 255)"
 d="M16.453,16.000 L2.547,16.000 C1.148,16.000 -0.000,14.822 -0.000,13.413 L-0.000,5.116 C-0.000,3.707 1.148,2.550 2.547,2.550 L5.637,2.540 L6.368,0.284 C6.483,0.116 6.671,-0.000 6.880,-0.000 L12.026,-0.000 C12.235,-0.000 12.433,0.116 12.548,0.294 L13.403,2.540 L16.453,2.550 C17.852,2.550 19.000,3.707 19.000,5.116 L19.000,13.413 C19.000,14.822 17.852,16.000 16.453,16.000 ZM17.737,13.413 L17.737,5.116 C17.737,4.401 17.152,3.812 16.442,3.812 L13.048,3.791 C12.850,3.791 12.652,3.676 12.537,3.507 L11.692,1.272 L7.214,1.272 L6.482,3.528 C6.368,3.697 6.180,3.812 5.971,3.812 L2.547,3.812 C1.837,3.812 1.253,4.401 1.253,5.116 L1.253,13.413 C1.253,14.128 1.837,14.738 2.547,14.738 L16.453,14.738 C17.163,14.738 17.747,14.128 17.747,13.413 L17.737,13.413 ZM9.546,12.750 C7.486,12.750 5.805,11.058 5.805,8.984 C5.805,6.911 7.478,5.219 9.546,5.219 C11.606,5.219 13.288,6.911 13.288,8.984 C13.288,11.058 11.606,12.750 9.546,12.750 ZM9.546,6.282 C8.067,6.282 6.861,7.496 6.861,8.984 C6.861,10.473 8.067,11.687 9.546,11.687 C11.025,11.687 12.231,10.473 12.231,8.984 C12.231,7.496 11.025,6.282 9.546,6.282 Z"/>
</svg>
