<svg 
 xmlns="http://www.w3.org/2000/svg"
 xmlns:xlink="http://www.w3.org/1999/xlink"
 width="16px" height="14px">
<path fill-rule="evenodd"  fill="rgb(255, 255, 255)"
 d="M15.932,0.440 C15.803,0.145 15.580,-0.002 15.262,-0.002 L0.737,-0.002 C0.420,-0.002 0.196,0.145 0.068,0.440 C-0.061,0.749 -0.008,1.014 0.227,1.233 L5.821,6.818 L5.821,10.933 C5.821,11.129 5.893,11.299 6.037,11.443 L8.942,13.786 C9.078,13.930 9.248,14.002 9.452,14.002 C9.543,14.002 9.638,13.983 9.736,13.945 C10.031,13.817 10.179,13.594 10.179,13.277 L10.179,6.818 L15.773,1.233 C16.008,1.014 16.061,0.750 15.932,0.440 Z"/>
</svg>
