<svg 
 xmlns="http://www.w3.org/2000/svg"
 xmlns:xlink="http://www.w3.org/1999/xlink"
 width="36px" height="34px">
<path fill-rule="evenodd"  fill="rgb(85, 85, 85)"
 d="M22.480,0.272 L3.212,0.272 C1.438,0.272 0.001,1.707 0.001,3.478 L0.001,22.718 C0.001,24.489 1.438,25.924 3.212,25.924 L22.480,25.924 C24.253,25.924 25.691,24.489 25.691,22.718 L25.691,3.478 C25.691,1.707 24.253,0.272 22.480,0.272 ZM5.974,1.875 L19.717,1.875 M21.323,1.875 L22.480,1.875 C23.367,1.875 24.085,2.593 24.085,3.478 L24.085,22.718 C24.085,23.604 23.367,24.321 22.480,24.321 L3.212,24.321 C2.325,24.321 1.606,23.604 1.606,22.718 L1.606,3.478 C1.606,2.593 2.325,1.875 3.212,1.875 L4.368,1.875 "/>
<path fill-rule="evenodd"  fill="rgb(85, 85, 85)"
 d="M5.026,7.531 L20.692,7.531 C21.138,7.531 21.500,7.893 21.500,8.339 L21.500,8.349 C21.500,8.794 21.138,9.156 20.692,9.156 L5.026,9.156 C4.580,9.156 4.219,8.794 4.219,8.349 L4.219,8.339 C4.219,7.893 4.580,7.531 5.026,7.531 Z"/>
<path fill-rule="evenodd"  fill="rgb(85, 85, 85)"
 d="M5.016,11.469 L20.703,11.469 C21.143,11.469 21.500,11.825 21.500,12.266 C21.500,12.705 21.143,13.062 20.703,13.062 L5.016,13.062 C4.576,13.062 4.219,12.705 4.219,12.266 C4.219,11.825 4.576,11.469 5.016,11.469 Z"/>
<path fill-rule="evenodd"  fill="rgb(85, 85, 85)"
 d="M5.026,15.437 L20.692,15.437 C21.138,15.437 21.500,15.799 21.500,16.245 L21.500,16.255 C21.500,16.701 21.138,17.062 20.692,17.062 L5.026,17.062 C4.580,17.062 4.219,16.701 4.219,16.255 L4.219,16.245 C4.219,15.799 4.580,15.437 5.026,15.437 Z"/>
<path fill-rule="evenodd"  fill="rgb(85, 85, 85)"
 d="M5.013,19.375 L14.581,19.375 C15.019,19.375 15.375,19.730 15.375,20.169 L15.375,20.175 C15.375,20.613 15.019,20.969 14.581,20.969 L5.013,20.969 C4.574,20.969 4.219,20.613 4.219,20.175 L4.219,20.169 C4.219,19.730 4.574,19.375 5.013,19.375 Z"/>
<path fill-rule="evenodd"  fill="rgb(255, 255, 255)"
 d="M22.344,11.781 C26.935,11.781 30.656,15.503 30.656,20.094 C30.656,24.684 26.935,28.406 22.344,28.406 C17.753,28.406 14.031,24.684 14.031,20.094 C14.031,15.503 17.753,11.781 22.344,11.781 Z"/>
<path fill-rule="evenodd"  fill="rgb(85, 85, 85)"
 d="M35.711,32.052 L30.041,26.384 C31.446,24.672 32.293,22.478 32.293,20.087 C32.293,14.602 27.841,10.151 22.353,10.151 C16.861,10.151 12.414,14.602 12.414,20.087 C12.414,25.571 16.861,30.022 22.353,30.022 C24.746,30.022 26.936,29.180 28.650,27.775 L34.320,33.438 C34.705,33.823 35.326,33.823 35.711,33.438 C36.096,33.058 36.096,32.432 35.711,32.052 ZM22.353,28.044 C17.959,28.044 14.387,24.475 14.387,20.087 C14.387,15.698 17.959,12.124 22.353,12.124 C26.743,12.124 30.320,15.698 30.320,20.087 C30.320,24.475 26.743,28.044 22.353,28.044 Z"/>
</svg>
