<svg 
 xmlns="http://www.w3.org/2000/svg"
 xmlns:xlink="http://www.w3.org/1999/xlink"
 width="22px" height="24px">
<path fill-rule="evenodd"  fill="rgb(75, 183, 196)"
 d="M21.995,12.082 C21.990,12.102 21.990,12.122 21.985,12.141 C21.980,12.151 21.980,12.156 21.980,12.166 C21.980,12.191 21.970,12.211 21.965,12.236 C21.960,12.236 21.960,12.241 21.960,12.246 C21.950,12.271 21.945,12.296 21.935,12.315 C21.930,12.320 21.930,12.320 21.930,12.325 C21.920,12.350 21.910,12.370 21.900,12.390 C21.900,12.390 21.895,12.395 21.895,12.400 C21.886,12.420 21.871,12.440 21.861,12.459 C21.856,12.464 21.856,12.469 21.851,12.474 C21.841,12.494 21.826,12.509 21.811,12.529 C21.806,12.534 21.806,12.534 21.801,12.539 C21.781,12.559 21.761,12.579 21.736,12.608 L16.544,17.797 C16.380,17.961 16.162,18.046 15.943,18.046 C15.724,18.046 15.505,17.961 15.341,17.797 C15.008,17.464 15.008,16.923 15.341,16.590 L19.081,12.852 L7.448,12.852 C6.976,12.852 6.593,12.469 6.593,11.997 C6.593,11.530 6.976,11.148 7.448,11.148 L19.076,11.148 L15.311,7.385 C14.978,7.052 14.978,6.510 15.311,6.178 C15.644,5.845 16.186,5.845 16.520,6.178 L21.741,11.391 C21.766,11.411 21.781,11.436 21.801,11.456 C21.806,11.461 21.806,11.461 21.811,11.466 C21.826,11.481 21.836,11.500 21.851,11.520 C21.856,11.525 21.856,11.530 21.861,11.535 C21.876,11.555 21.886,11.575 21.895,11.595 C21.895,11.595 21.900,11.600 21.900,11.605 C21.910,11.625 21.920,11.649 21.930,11.669 C21.935,11.674 21.935,11.674 21.935,11.679 C21.945,11.704 21.955,11.724 21.960,11.749 C21.965,11.749 21.965,11.754 21.965,11.759 C21.970,11.784 21.975,11.804 21.980,11.828 C21.985,11.838 21.985,11.843 21.985,11.853 C21.990,11.873 21.995,11.893 21.995,11.913 C22.000,11.943 22.000,11.967 22.000,11.997 C22.000,12.027 22.000,12.052 21.995,12.082 ZM10.385,2.445 L4.325,2.445 C2.714,2.445 1.710,3.448 1.705,5.063 L1.705,18.937 C1.705,20.547 2.714,21.554 4.325,21.554 L10.280,21.554 C10.753,21.554 11.136,21.937 11.136,22.409 C11.136,22.876 10.753,23.258 10.280,23.258 L4.325,23.258 C1.774,23.258 -0.000,21.486 -0.000,18.937 L-0.000,5.063 C-0.000,2.514 1.774,0.741 4.325,0.741 L10.385,0.741 C10.857,0.741 11.240,1.124 11.240,1.596 C11.240,2.063 10.857,2.445 10.385,2.445 Z"/>
</svg>
