<svg 
 xmlns="http://www.w3.org/2000/svg"
 xmlns:xlink="http://www.w3.org/1999/xlink"
 width="51px" height="51px">
<path fill-rule="evenodd"  fill="rgb(133, 133, 133)"
 d="M49.264,46.461 L36.930,33.831 C40.101,30.120 41.839,25.450 41.839,20.588 C41.839,9.229 32.452,-0.012 20.915,-0.012 C9.378,-0.012 -0.009,9.229 -0.009,20.588 C-0.009,31.947 9.378,41.189 20.915,41.189 C25.246,41.189 29.374,39.903 32.902,37.461 L45.330,50.187 C45.850,50.718 46.548,51.010 47.297,51.010 C48.006,51.010 48.678,50.745 49.188,50.261 C50.273,49.233 50.307,47.530 49.264,46.461 ZM20.915,5.362 C29.443,5.362 36.380,12.192 36.380,20.588 C36.380,28.985 29.443,35.815 20.915,35.815 C12.387,35.815 5.450,28.985 5.450,20.588 C5.450,12.192 12.387,5.362 20.915,5.362 Z"/>
</svg>
