<svg 
 xmlns="http://www.w3.org/2000/svg"
 xmlns:xlink="http://www.w3.org/1999/xlink"
 width="31px" height="34px">
<path fill-rule="evenodd"  fill="rgb(85, 85, 85)"
 d="M26.421,33.901 L4.580,33.901 C2.570,33.901 0.940,32.272 0.940,30.263 L0.940,8.432 C0.940,6.424 2.570,4.794 4.580,4.794 L10.781,4.794 L10.781,6.613 L7.711,6.613 L7.711,20.163 C7.711,20.665 8.119,21.073 8.621,21.073 L22.380,21.073 C22.882,21.073 23.289,20.665 23.289,20.163 L23.289,6.613 L20.344,6.613 L20.344,4.794 L26.421,4.794 C28.431,4.794 30.061,6.424 30.061,8.432 L30.061,30.263 C30.061,32.272 28.431,33.901 26.421,33.901 ZM28.241,8.432 C28.241,7.428 27.427,6.613 26.421,6.613 L25.110,6.613 L25.110,21.073 C25.110,22.077 24.295,22.892 23.289,22.892 L7.711,22.892 C6.706,22.892 5.891,22.077 5.891,21.073 L5.891,6.613 L4.580,6.613 C3.575,6.613 2.760,7.428 2.760,8.432 L2.760,30.263 C2.760,31.268 3.575,32.082 4.580,32.082 L26.421,32.082 C27.427,32.082 28.241,31.268 28.241,30.263 L28.241,8.432 Z"/>
<path fill-rule="evenodd"  fill="rgb(85, 85, 85)"
 d="M11.728,11.443 C11.350,11.070 10.739,11.070 10.362,11.443 C9.985,11.815 9.985,12.418 10.362,12.789 L14.803,17.124 C15.003,17.322 15.271,17.407 15.534,17.393 C15.797,17.407 16.064,17.322 16.265,17.124 L20.704,12.789 C21.082,12.418 21.082,11.814 20.704,11.443 C20.326,11.070 19.715,11.070 19.338,11.443 L16.499,14.202 L16.499,1.049 C16.499,0.524 16.066,0.097 15.533,0.097 C15.000,0.097 14.567,0.524 14.567,1.049 L14.567,14.202 L11.728,11.443 Z"/>
</svg>
