<svg 
 xmlns="http://www.w3.org/2000/svg"
 xmlns:xlink="http://www.w3.org/1999/xlink"
 width="17px" height="11px">
<path fill-rule="evenodd"  fill="rgb(147, 147, 147)"
 d="M8.341,0.014 C10.657,0.006 12.326,0.634 13.738,1.511 C14.512,1.991 15.190,2.595 15.752,3.283 C16.137,3.754 16.492,4.271 16.760,4.855 C16.810,4.965 16.859,5.075 16.908,5.185 C16.951,5.284 17.012,5.393 16.994,5.542 C16.965,5.777 16.819,6.012 16.731,6.203 C16.497,6.711 16.185,7.168 15.856,7.586 C14.710,9.045 13.113,10.087 11.057,10.656 C10.655,10.767 10.229,10.835 9.780,10.903 C8.730,11.062 7.392,10.989 6.463,10.781 C6.076,10.694 5.701,10.615 5.352,10.488 C5.001,10.360 4.666,10.233 4.340,10.090 C4.029,9.953 3.732,9.789 3.451,9.618 C2.635,9.123 1.903,8.533 1.311,7.818 C0.887,7.307 0.496,6.756 0.204,6.117 C0.116,5.925 -0.081,5.616 0.004,5.342 C0.059,5.166 0.148,5.002 0.223,4.841 C0.440,4.368 0.721,3.947 1.014,3.548 C1.164,3.346 1.330,3.159 1.493,2.970 C1.560,2.900 1.627,2.830 1.694,2.760 C1.799,2.641 1.922,2.525 2.044,2.422 C2.287,2.219 2.520,2.005 2.781,1.820 C3.671,1.191 4.661,0.694 5.858,0.359 C6.365,0.216 6.902,0.138 7.485,0.062 C7.681,0.036 7.884,0.043 8.089,0.021 C8.173,0.018 8.257,0.016 8.341,0.014 ZM8.431,2.354 C8.325,2.360 8.219,2.368 8.113,2.375 C7.888,2.406 7.687,2.449 7.495,2.507 C6.495,2.810 5.798,3.537 5.441,4.475 C5.329,4.772 5.223,5.267 5.272,5.687 C5.297,5.899 5.313,6.090 5.364,6.270 C5.658,7.299 6.303,8.012 7.249,8.400 C7.543,8.521 7.855,8.591 8.236,8.634 C8.333,8.645 8.454,8.656 8.562,8.644 C8.643,8.639 8.724,8.634 8.804,8.629 C8.966,8.609 9.116,8.587 9.261,8.553 C10.304,8.307 11.079,7.601 11.463,6.707 C11.584,6.426 11.654,6.127 11.698,5.765 C11.709,5.674 11.722,5.560 11.711,5.459 C11.696,5.334 11.702,5.214 11.684,5.099 C11.638,4.805 11.569,4.547 11.469,4.309 C11.021,3.246 9.966,2.352 8.431,2.354 ZM8.437,4.381 C9.087,4.374 9.511,4.774 9.615,5.301 C9.659,5.521 9.617,5.765 9.547,5.928 C9.383,6.312 9.055,6.568 8.547,6.617 C8.404,6.631 8.265,6.602 8.159,6.570 C7.633,6.414 7.143,5.814 7.412,5.112 C7.538,4.782 7.795,4.536 8.148,4.429 C8.237,4.403 8.332,4.404 8.437,4.381 Z"/>
</svg>
