<svg 
 xmlns="http://www.w3.org/2000/svg"
 xmlns:xlink="http://www.w3.org/1999/xlink"
 width="16px" height="10px">
<path fill-rule="evenodd"  fill="rgb(95, 95, 95)"
 d="M15.887,5.358 C15.854,5.405 15.044,6.536 13.670,7.670 C12.856,8.340 12.010,8.876 11.158,9.262 C10.074,9.751 8.976,9.999 7.892,9.999 C5.155,9.999 2.543,8.448 0.129,5.382 C-0.037,5.166 -0.044,4.863 0.113,4.641 C0.146,4.594 0.956,3.463 2.330,2.329 C3.144,1.659 3.990,1.124 4.842,0.737 C5.926,0.249 7.023,-0.001 8.108,-0.001 C10.845,-0.001 13.454,1.554 15.871,4.618 C16.037,4.833 16.044,5.136 15.887,5.358 ZM8.104,1.215 C6.014,1.215 4.225,2.325 3.088,3.258 C2.278,3.924 1.674,4.594 1.344,4.994 C3.434,7.512 5.635,8.788 7.892,8.788 C9.982,8.788 11.772,7.677 12.909,6.745 C13.719,6.082 14.323,5.408 14.652,5.008 C12.562,2.490 10.361,1.215 8.104,1.215 ZM8.459,7.794 C8.440,7.799 8.425,7.811 8.405,7.814 C8.315,7.828 8.226,7.822 8.137,7.827 C8.089,7.830 8.045,7.842 7.997,7.842 C7.980,7.842 7.964,7.837 7.947,7.837 C7.821,7.834 7.699,7.818 7.576,7.798 C7.516,7.788 7.454,7.783 7.395,7.769 C7.287,7.744 7.183,7.706 7.079,7.668 C7.012,7.643 6.943,7.622 6.877,7.592 C6.789,7.551 6.707,7.500 6.623,7.450 C6.552,7.407 6.479,7.367 6.412,7.318 C6.341,7.266 6.277,7.206 6.211,7.148 C6.142,7.086 6.072,7.028 6.009,6.960 C5.954,6.901 5.908,6.836 5.859,6.772 C5.796,6.692 5.732,6.612 5.678,6.525 C5.641,6.465 5.612,6.401 5.580,6.339 C5.526,6.236 5.473,6.133 5.432,6.023 C5.411,5.967 5.397,5.908 5.380,5.850 C5.342,5.726 5.308,5.601 5.286,5.470 C5.284,5.453 5.277,5.438 5.274,5.422 C5.267,5.375 5.272,5.329 5.268,5.283 C5.259,5.189 5.240,5.098 5.240,5.001 C5.240,4.967 5.249,4.935 5.250,4.901 C5.252,4.830 5.263,4.762 5.270,4.693 C5.283,4.574 5.296,4.455 5.323,4.341 C5.338,4.277 5.360,4.216 5.380,4.154 C5.414,4.040 5.449,3.928 5.497,3.821 C5.525,3.758 5.560,3.700 5.593,3.639 C5.645,3.542 5.695,3.446 5.757,3.357 C5.804,3.289 5.859,3.228 5.911,3.164 C5.971,3.092 6.028,3.019 6.094,2.954 C6.164,2.885 6.241,2.826 6.317,2.764 C6.378,2.715 6.437,2.664 6.502,2.621 C6.590,2.561 6.685,2.514 6.780,2.465 C6.844,2.432 6.907,2.396 6.974,2.368 C7.073,2.327 7.178,2.298 7.283,2.269 C7.355,2.249 7.425,2.226 7.499,2.212 C7.530,2.206 7.558,2.193 7.590,2.189 C7.677,2.175 7.763,2.180 7.850,2.176 C7.900,2.173 7.946,2.160 7.997,2.160 C8.008,2.160 8.017,2.166 8.028,2.167 C9.354,2.182 10.517,3.181 10.720,4.581 C10.730,4.650 10.722,4.718 10.710,4.783 C10.736,4.851 10.753,4.924 10.753,5.001 C10.753,6.403 9.760,7.565 8.459,7.794 ZM7.910,3.381 C7.843,3.385 7.777,3.389 7.713,3.402 C7.669,3.410 7.627,3.423 7.584,3.435 C7.526,3.452 7.467,3.468 7.412,3.491 C7.371,3.507 7.334,3.529 7.295,3.549 C7.243,3.576 7.190,3.602 7.141,3.635 C7.102,3.661 7.066,3.692 7.030,3.721 C6.988,3.755 6.945,3.788 6.907,3.826 C6.867,3.865 6.833,3.909 6.797,3.952 C6.769,3.986 6.739,4.020 6.713,4.057 C6.677,4.110 6.646,4.168 6.615,4.225 C6.598,4.258 6.579,4.289 6.564,4.323 C6.536,4.386 6.515,4.453 6.494,4.520 C6.484,4.554 6.472,4.586 6.464,4.621 C6.448,4.689 6.440,4.759 6.433,4.829 C6.429,4.867 6.423,4.904 6.422,4.942 C6.419,5.016 6.425,5.092 6.432,5.167 C6.436,5.201 6.437,5.235 6.442,5.268 C6.455,5.346 6.475,5.420 6.497,5.492 C6.507,5.523 6.514,5.555 6.525,5.585 C6.550,5.651 6.581,5.712 6.613,5.772 C6.631,5.806 6.646,5.841 6.666,5.874 C6.698,5.925 6.736,5.972 6.773,6.020 C6.800,6.055 6.826,6.091 6.856,6.124 C6.893,6.163 6.934,6.198 6.974,6.233 C7.011,6.266 7.047,6.300 7.088,6.330 C7.126,6.358 7.168,6.381 7.209,6.405 C7.257,6.434 7.304,6.464 7.355,6.487 C7.392,6.504 7.432,6.516 7.470,6.530 C7.530,6.552 7.589,6.574 7.652,6.589 C7.686,6.596 7.721,6.599 7.755,6.605 C7.825,6.616 7.896,6.626 7.968,6.627 C8.004,6.628 8.040,6.624 8.077,6.622 C8.911,6.578 9.577,5.872 9.577,5.001 C9.577,4.959 9.593,4.921 9.601,4.881 C9.586,4.841 9.565,4.804 9.559,4.760 C9.437,3.922 8.714,3.335 7.910,3.381 Z"/>
</svg>
