<svg 
 xmlns="http://www.w3.org/2000/svg"
 xmlns:xlink="http://www.w3.org/1999/xlink"
 width="14px" height="14px">
<path fill-rule="evenodd" fill="rgb(255, 255, 255)"
 d="M8.128,6.997 L13.160,1.960 C13.473,1.647 13.473,1.140 13.160,0.827 C12.847,0.514 12.341,0.514 12.029,0.827 L6.997,5.864 L1.964,0.827 C1.652,0.514 1.146,0.514 0.833,0.827 C0.520,1.140 0.520,1.647 0.833,1.960 L5.865,6.997 L0.833,12.034 C0.520,12.346 0.520,12.854 0.833,13.166 C0.989,13.323 1.194,13.401 1.399,13.401 C1.603,13.401 1.808,13.323 1.964,13.166 L6.997,8.129 L12.029,13.166 C12.185,13.323 12.390,13.401 12.594,13.401 C12.799,13.401 13.004,13.323 13.160,13.166 C13.473,12.854 13.473,12.346 13.160,12.034 L8.128,6.997 Z"/>
</svg>
