<svg 
 xmlns="http://www.w3.org/2000/svg"
 xmlns:xlink="http://www.w3.org/1999/xlink"
 width="13px" height="13px">
<g transform="translate(-0.5, -0.5)">
<path fill-rule="evenodd"  fill="rgb(0, 0, 0)"
 d="M12.250,13.300 L1.750,13.300 C1.170,13.300 0.700,12.830 0.700,12.249 L0.700,2.930 C0.700,2.350 1.170,1.881 1.750,1.881 L3.207,1.881 L3.207,1.093 C3.207,0.876 3.383,0.699 3.600,0.699 C3.818,0.699 3.994,0.876 3.994,1.093 L3.994,1.881 L6.606,1.881 L6.606,1.093 C6.606,0.876 6.783,0.699 7.000,0.699 C7.217,0.699 7.394,0.876 7.394,1.093 L7.394,1.881 L10.006,1.881 L10.006,1.093 C10.006,0.876 10.182,0.699 10.399,0.699 C10.617,0.699 10.793,0.876 10.793,1.093 L10.793,1.881 L12.250,1.881 C12.830,1.881 13.300,2.350 13.300,2.930 L13.300,12.249 C13.300,12.830 12.830,13.300 12.250,13.300 ZM12.512,2.930 C12.512,2.786 12.395,2.668 12.250,2.668 L10.793,2.668 L10.793,3.206 C10.793,3.424 10.617,3.600 10.399,3.600 C10.182,3.600 10.006,3.424 10.006,3.206 L10.006,2.668 L7.394,2.668 L7.394,3.206 C7.394,3.424 7.217,3.600 7.000,3.600 C6.783,3.600 6.606,3.424 6.606,3.206 L6.606,2.668 L3.994,2.668 L3.994,3.206 C3.994,3.424 3.818,3.600 3.600,3.600 C3.383,3.600 3.207,3.424 3.207,3.206 L3.207,2.668 L1.750,2.668 C1.605,2.668 1.487,2.786 1.487,2.930 L1.487,12.249 C1.487,12.394 1.605,12.512 1.750,12.512 L12.250,12.512 C12.395,12.512 12.512,12.394 12.512,12.249 L12.512,2.930 ZM9.749,10.175 L11.054,10.175 L11.054,11.154 L9.749,11.154 L9.749,10.175 ZM9.749,8.528 L11.054,8.528 L11.054,9.507 L9.749,9.507 L9.749,8.528 ZM9.749,6.897 L11.054,6.897 L11.054,7.875 L9.749,7.875 L9.749,6.897 ZM9.749,5.265 L11.054,5.265 L11.054,6.244 L9.749,6.244 L9.749,5.265 ZM7.465,10.175 L8.770,10.175 L8.770,11.154 L7.465,11.154 L7.465,10.175 ZM7.465,8.528 L8.770,8.528 L8.770,9.507 L7.465,9.507 L7.465,8.528 ZM7.465,6.897 L8.770,6.897 L8.770,7.875 L7.465,7.875 L7.465,6.897 ZM7.465,5.265 L8.770,5.265 L8.770,6.244 L7.465,6.244 L7.465,5.265 ZM5.180,10.175 L6.485,10.175 L6.485,11.154 L5.180,11.154 L5.180,10.175 ZM5.180,8.528 L6.485,8.528 L6.485,9.507 L5.180,9.507 L5.180,8.528 ZM5.180,6.897 L6.485,6.897 L6.485,7.875 L5.180,7.875 L5.180,6.897 ZM5.180,5.265 L6.485,5.265 L6.485,6.244 L5.180,6.244 L5.180,5.265 ZM2.896,10.175 L4.201,10.175 L4.201,11.154 L2.896,11.154 L2.896,10.175 ZM2.896,8.528 L4.201,8.528 L4.201,9.507 L2.896,9.507 L2.896,8.528 ZM2.896,6.897 L4.201,6.897 L4.201,7.875 L2.896,7.875 L2.896,6.897 ZM2.896,5.265 L4.201,5.265 L4.201,6.244 L2.896,6.244 L2.896,5.265 Z"/>
</g>
</svg>
