<svg 
 xmlns="http://www.w3.org/2000/svg"
 xmlns:xlink="http://www.w3.org/1999/xlink"
 width="44px" height="31px">
<path fill-rule="evenodd"  fill="rgb(85, 85, 85)"
 d="M43.487,14.691 C43.389,14.738 43.285,14.771 43.168,14.779 L39.563,15.029 C39.073,15.061 38.650,14.694 38.619,14.206 C38.588,13.718 38.958,13.296 39.448,13.264 L43.053,13.013 C43.543,12.981 43.966,13.348 43.994,13.830 C44.017,14.201 43.809,14.540 43.487,14.691 ZM38.377,9.183 C37.931,9.394 37.400,9.206 37.190,8.762 C36.980,8.319 37.170,7.790 37.616,7.579 L40.756,6.096 C41.202,5.885 41.729,6.067 41.943,6.516 C42.153,6.960 41.962,7.489 41.517,7.700 L38.377,9.183 ZM35.301,4.099 C35.219,4.178 35.130,4.244 35.031,4.290 C34.710,4.442 34.316,4.389 34.043,4.135 C33.690,3.799 33.674,3.240 34.006,2.891 L36.485,0.268 C36.821,-0.091 37.382,-0.109 37.741,0.225 C38.100,0.558 38.116,1.117 37.780,1.475 L35.301,4.099 ZM32.289,17.240 L35.541,23.898 C35.829,24.488 35.783,25.166 35.419,25.713 C35.232,25.993 34.981,26.209 34.693,26.349 C34.415,26.484 34.103,26.549 33.778,26.531 C27.901,26.204 21.499,25.758 15.980,27.770 L8.441,31.013 C7.469,31.049 6.228,30.480 5.340,28.433 L4.285,28.945 C3.131,29.507 1.735,29.028 1.173,27.878 L0.206,25.899 C-0.355,24.749 0.127,23.357 1.282,22.795 L2.336,22.282 C1.042,19.920 1.832,18.174 3.122,17.546 C3.122,17.546 8.249,15.024 8.291,15.000 C13.770,11.815 17.744,6.274 21.356,1.095 C21.735,0.553 22.354,0.259 23.012,0.310 C23.669,0.360 24.232,0.742 24.520,1.332 L27.772,7.989 C30.214,7.168 33.540,7.976 34.697,10.345 C35.854,12.713 34.442,15.826 32.289,17.240 ZM3.103,23.900 L2.067,24.404 C1.803,24.532 1.693,24.851 1.821,25.114 L2.788,27.093 C2.916,27.356 3.236,27.466 3.500,27.337 L4.536,26.833 L3.103,23.900 ZM3.908,19.154 C3.407,19.398 3.198,20.002 3.442,20.500 L3.442,20.500 L7.427,28.661 C7.607,29.029 7.983,29.237 8.368,29.224 C8.509,29.217 8.547,29.209 8.718,29.149 C8.737,29.141 13.172,26.986 13.172,26.986 L8.303,17.016 L3.908,19.154 ZM22.906,2.117 C22.900,2.106 22.895,2.096 22.873,2.095 C22.847,2.092 22.837,2.106 22.830,2.116 C19.218,7.294 15.283,12.873 9.874,16.142 L14.829,26.288 C20.741,24.050 27.568,24.393 33.881,24.744 C33.893,24.744 33.909,24.745 33.924,24.723 C33.937,24.705 33.932,24.695 33.926,24.684 L22.906,2.117 ZM33.082,11.130 C32.360,9.651 30.108,9.216 28.567,9.618 L31.494,15.612 C32.761,14.648 33.805,12.610 33.082,11.130 Z"/>
<path fill-rule="evenodd"  fill="rgb(85, 85, 85)"
 d="M28.710,21.598 C28.710,21.598 22.432,19.749 16.866,22.725 L17.258,24.047 C17.258,24.047 20.958,21.336 28.338,22.894 L28.710,21.598 Z"/>
<path fill-rule="evenodd"  fill="rgb(85, 85, 85)"
 d="M28.382,21.586 C28.021,21.574 27.717,21.857 27.705,22.218 C27.693,22.579 27.976,22.882 28.338,22.894 C28.700,22.906 29.003,22.624 29.015,22.262 C29.028,21.902 28.744,21.599 28.382,21.586 Z"/>
<path fill-rule="evenodd"  fill="rgb(85, 85, 85)"
 d="M17.084,22.732 C16.722,22.720 16.419,23.003 16.407,23.364 C16.395,23.725 16.678,24.027 17.040,24.039 C17.402,24.052 17.705,23.769 17.717,23.408 C17.729,23.047 17.446,22.744 17.084,22.732 Z"/>
</svg>
