<svg 
 xmlns="http://www.w3.org/2000/svg"
 xmlns:xlink="http://www.w3.org/1999/xlink"
 width="20px" height="20px">
<g transform="translate(-2.5, -2.5)">
<path fill-rule="evenodd"  stroke-width="1px" stroke="rgb(255, 255, 255)" fill="rgb(255, 255, 255)"
 d="M18.045,21.500 L6.955,21.500 C4.917,21.500 3.500,20.048 3.500,17.961 L3.500,13.003 C3.500,12.617 3.806,12.303 4.183,12.303 C4.556,12.303 4.862,12.617 4.862,13.003 L4.862,17.961 C4.862,19.279 5.664,20.100 6.955,20.105 L18.045,20.105 C19.332,20.105 20.138,19.279 20.138,17.961 L20.138,13.089 C20.138,12.702 20.443,12.389 20.821,12.389 C21.194,12.389 21.500,12.702 21.500,13.089 L21.500,17.961 C21.500,20.048 20.083,21.500 18.045,21.500 ZM12.997,15.879 C12.974,15.899 12.958,15.915 12.942,15.931 C12.938,15.936 12.938,15.936 12.934,15.940 C12.918,15.952 12.906,15.964 12.890,15.972 C12.886,15.976 12.882,15.976 12.878,15.980 C12.862,15.989 12.846,16.001 12.830,16.009 C12.826,16.009 12.822,16.013 12.822,16.013 C12.806,16.021 12.791,16.029 12.771,16.037 C12.767,16.037 12.767,16.037 12.763,16.041 C12.747,16.049 12.727,16.053 12.707,16.062 C12.703,16.062 12.699,16.062 12.699,16.066 C12.679,16.070 12.663,16.078 12.643,16.078 C12.635,16.078 12.631,16.078 12.623,16.082 C12.608,16.086 12.592,16.086 12.576,16.090 C12.552,16.094 12.532,16.094 12.508,16.094 C12.484,16.094 12.464,16.094 12.440,16.090 C12.425,16.090 12.409,16.086 12.393,16.082 C12.385,16.082 12.381,16.082 12.373,16.078 C12.353,16.074 12.337,16.070 12.317,16.066 C12.313,16.066 12.309,16.066 12.309,16.062 C12.289,16.058 12.273,16.049 12.254,16.041 C12.250,16.041 12.250,16.041 12.246,16.037 C12.230,16.029 12.210,16.021 12.194,16.013 C12.190,16.013 12.186,16.009 12.186,16.009 C12.170,16.001 12.154,15.992 12.138,15.980 C12.134,15.976 12.130,15.976 12.126,15.972 C12.110,15.960 12.094,15.952 12.083,15.940 C12.079,15.936 12.079,15.936 12.075,15.931 C12.059,15.915 12.039,15.903 12.023,15.883 L7.849,11.614 C7.583,11.342 7.583,10.899 7.849,10.626 C8.116,10.354 8.549,10.354 8.816,10.626 L11.828,13.704 L11.828,4.198 C11.828,3.812 12.134,3.499 12.508,3.499 C12.886,3.499 13.192,3.812 13.192,4.198 L13.192,13.708 L16.185,10.651 C16.451,10.378 16.885,10.378 17.151,10.651 C17.282,10.785 17.350,10.963 17.350,11.142 C17.350,11.321 17.282,11.500 17.151,11.634 L12.997,15.879 Z"/>
</g>
</svg>
