<svg 
 xmlns="http://www.w3.org/2000/svg"
 xmlns:xlink="http://www.w3.org/1999/xlink"
 width="34px" height="33.5px">
<defs>
<linearGradient id="PSgrad_0" x1="0%" x2="100%" y1="0%" y2="0%">
  <stop offset="0%" stop-color="rgb(74,183,195)" stop-opacity="1" />
  <stop offset="100%" stop-color="rgb(31,121,191)" stop-opacity="1" />
</linearGradient>

</defs>
<g transform="translate(1, 0.5)">
<path fill-rule="evenodd"  fill="rgb(255, 255, 255)"
 d="M3.000,-0.000 L29.625,-0.000 C31.282,-0.000 32.625,1.343 32.625,3.000 L32.625,29.625 C32.625,31.282 31.282,32.625 29.625,32.625 L3.000,32.625 C1.343,32.625 -0.000,31.282 -0.000,29.625 L-0.000,3.000 C-0.000,1.343 1.343,-0.000 3.000,-0.000 Z"/>
<path fill="url(#PSgrad_0)"
 d="M3.000,-0.000 L29.625,-0.000 C31.282,-0.000 32.625,1.343 32.625,3.000 L32.625,29.625 C32.625,31.282 31.282,32.625 29.625,32.625 L3.000,32.625 C1.343,32.625 -0.000,31.282 -0.000,29.625 L-0.000,3.000 C-0.000,1.343 1.343,-0.000 3.000,-0.000 Z"/>
<path fill-rule="evenodd"  fill="rgb(255, 255, 255)"
 d="M14.611,23.356 C13.752,24.208 12.357,24.208 11.498,23.356 L6.674,18.576 C5.814,17.724 5.814,16.343 6.674,15.491 C7.533,14.639 8.928,14.639 9.787,15.491 L12.661,18.339 C12.878,18.554 13.230,18.554 13.448,18.339 L21.230,10.627 C22.090,9.776 23.484,9.776 24.344,10.627 C24.757,11.036 24.989,11.591 24.989,12.170 C24.989,12.748 24.757,13.303 24.344,13.712 L14.611,23.356 Z"/>
</g>
</svg>
