<svg 
 xmlns="http://www.w3.org/2000/svg"
 xmlns:xlink="http://www.w3.org/1999/xlink"
 width="34.5px" height="31.5px">
<path fill-rule="evenodd"  fill="rgb(85, 85, 85)"
 d="M25.082,24.999 L0.918,24.999 C0.406,24.999 -0.000,24.590 -0.000,24.073 C-0.000,19.202 3.928,15.258 8.731,15.258 L17.269,15.258 C22.094,15.258 26.000,19.224 26.000,24.073 C26.000,24.590 25.594,24.999 25.082,24.999 ZM17.269,17.111 L8.731,17.111 C5.230,17.111 2.348,19.762 1.900,23.146 L24.100,23.146 C23.652,19.741 20.770,17.111 17.269,17.111 ZM12.957,14.030 C9.115,14.030 5.998,10.862 5.998,7.004 C5.998,3.146 9.115,-0.001 12.957,-0.001 C16.800,-0.001 19.916,3.124 19.916,7.004 C19.916,10.883 16.800,14.030 12.957,14.030 ZM12.957,1.831 C10.140,1.831 7.834,4.159 7.834,7.004 C7.834,9.849 10.140,12.176 12.957,12.176 C15.775,12.176 18.080,9.849 18.080,7.004 C18.080,4.159 15.775,1.831 12.957,1.831 Z"/>
<path fill-rule="evenodd"  stroke-width="2px" stroke="rgb(85, 85, 85)" fill="rgb(255, 255, 255)"
 d="M26.266,16.875 C30.088,16.875 33.187,19.974 33.187,23.797 C33.187,27.619 30.088,30.719 26.266,30.719 C22.443,30.719 19.344,27.619 19.344,23.797 C19.344,19.974 22.443,16.875 26.266,16.875 Z"/>
<text x="22.5" y="26.5" font-family="Gotham" stroke="rgb(85, 85, 85)" font-size="9px">&#43;</text>
</svg>
