<svg 
 xmlns="http://www.w3.org/2000/svg"
 xmlns:xlink="http://www.w3.org/1999/xlink"
 width="45px" height="44px">
<path fill-rule="evenodd"  fill="rgb(255, 255, 255)"
 d="M24.859,5.375 C34.343,5.375 42.031,13.056 42.031,22.531 C42.031,32.006 34.343,39.687 24.859,39.687 C15.376,39.687 7.688,32.006 7.688,22.531 C7.688,13.056 15.376,5.375 24.859,5.375 Z"/>
<path fill-rule="evenodd"  fill="rgb(29, 189, 229)"
 d="M22.693,0.110 C10.549,0.110 0.704,9.886 0.704,21.948 C0.704,34.007 10.549,43.784 22.693,43.784 C34.837,43.784 44.682,34.007 44.682,21.948 C44.682,9.886 34.837,0.110 22.693,0.110 ZM32.550,17.224 C32.559,17.434 32.564,17.645 32.564,17.856 C32.564,24.320 27.662,31.773 18.699,31.773 C15.947,31.773 13.385,30.963 11.228,29.575 C11.610,29.621 11.997,29.644 12.391,29.644 C14.674,29.644 16.775,28.862 18.443,27.550 C16.311,27.512 14.511,26.096 13.891,24.153 C14.188,24.210 14.494,24.241 14.808,24.241 C15.252,24.241 15.682,24.181 16.092,24.070 C13.862,23.621 12.182,21.643 12.182,19.274 C12.182,19.253 12.182,19.233 12.183,19.213 C12.840,19.579 13.592,19.798 14.390,19.823 C13.082,18.947 12.222,17.449 12.222,15.752 C12.222,14.856 12.463,14.016 12.882,13.294 C15.286,16.253 18.876,18.200 22.927,18.405 C22.843,18.047 22.800,17.673 22.800,17.289 C22.800,14.589 24.982,12.399 27.674,12.399 C29.075,12.399 30.342,12.992 31.231,13.942 C32.341,13.724 33.384,13.317 34.325,12.756 C33.962,13.899 33.189,14.856 32.183,15.462 C33.168,15.344 34.107,15.081 34.982,14.692 C34.328,15.673 33.502,16.534 32.550,17.224 Z"/>
</svg>
