<svg 
 xmlns="http://www.w3.org/2000/svg"
 xmlns:xlink="http://www.w3.org/1999/xlink"
 width="45px" height="45px">
<path fill-rule="evenodd"  fill="rgb(253, 83, 83)"
 d="M22.328,0.219 C34.487,0.219 44.344,10.068 44.344,22.219 C44.344,34.369 34.487,44.219 22.328,44.219 C10.169,44.219 0.312,34.369 0.312,22.219 C0.312,10.068 10.169,0.219 22.328,0.219 Z"/>
<path fill-rule="evenodd"  fill="rgb(255, 255, 255)"
 d="M34.622,22.261 L34.622,24.068 L33.073,24.068 L33.073,22.261 L31.266,22.261 L31.266,20.713 L33.073,20.713 L33.073,18.906 L34.622,18.906 L34.622,20.713 L36.429,20.713 L36.429,22.261 L34.622,22.261 ZM21.228,31.234 C16.000,31.234 11.762,26.996 11.762,21.770 C11.762,16.542 16.000,12.304 21.228,12.304 C23.806,12.304 26.144,13.336 27.851,15.009 L25.713,17.332 C24.570,16.176 22.982,15.459 21.228,15.459 C17.743,15.459 14.917,18.284 14.917,21.770 C14.917,25.254 17.743,28.079 21.228,28.079 C24.053,28.079 26.444,26.222 27.248,23.662 L21.859,23.662 L21.859,20.717 L30.693,20.717 L30.693,20.717 L30.693,23.662 C29.815,27.982 25.807,31.234 21.228,31.234 Z"/>
</svg>
