<svg 
 xmlns="http://www.w3.org/2000/svg"
 xmlns:xlink="http://www.w3.org/1999/xlink"
 width="44px" height="45px">
<path fill-rule="evenodd"  fill="rgb(46, 132, 182)"
 d="M22.000,0.219 C34.150,0.219 44.000,10.068 44.000,22.219 C44.000,34.369 34.150,44.219 22.000,44.219 C9.850,44.219 -0.000,34.369 -0.000,22.219 C-0.000,10.068 9.850,0.219 22.000,0.219 Z"/>
<path fill-rule="evenodd"  fill="rgb(255, 255, 255)"
 d="M7.031,9.007 L34.314,9.007 L34.314,32.770 L7.031,32.770 L7.031,9.007 Z"/>
<path fill-rule="evenodd"  fill="rgb(46, 132, 182)"
 d="M33.596,23.542 C33.596,22.614 33.479,21.805 33.247,21.115 C33.014,20.424 32.694,19.851 32.287,19.398 C31.880,18.943 31.400,18.608 30.848,18.391 C30.295,18.173 29.690,18.065 29.031,18.065 C28.507,18.065 28.052,18.129 27.664,18.257 C27.276,18.386 26.942,18.554 26.661,18.761 C26.380,18.968 26.142,19.190 25.948,19.427 C25.755,19.664 25.590,19.881 25.454,20.078 L25.454,18.361 L21.500,18.361 C21.519,18.697 21.529,19.348 21.529,20.315 L21.529,23.986 C21.529,23.986 21.519,26.169 21.500,30.529 L25.454,30.529 L25.454,23.720 C25.454,23.542 25.464,23.370 25.483,23.201 C25.503,23.034 25.541,22.881 25.600,22.743 C25.755,22.388 25.992,22.052 26.312,21.736 C26.632,21.421 27.073,21.263 27.635,21.263 C28.352,21.263 28.866,21.515 29.176,22.018 C29.486,22.521 29.641,23.187 29.641,24.016 L29.641,30.529 L33.596,30.529 L33.596,23.542 ZM17.313,16.703 C18.011,16.703 18.563,16.496 18.970,16.081 C19.377,15.666 19.571,15.173 19.552,14.601 C19.552,14.009 19.353,13.510 18.956,13.106 C18.558,12.701 18.020,12.498 17.342,12.498 C16.663,12.498 16.121,12.701 15.714,13.106 C15.307,13.510 15.103,14.009 15.103,14.601 C15.103,15.173 15.297,15.666 15.684,16.081 C16.072,16.496 16.605,16.703 17.284,16.703 L17.313,16.703 L17.313,16.703 ZM19.290,18.361 L15.336,18.361 L15.336,30.529 L19.290,30.529 L19.290,18.361 ZM37.288,6.992 C37.482,6.992 37.647,7.056 37.783,7.184 C37.918,7.312 37.986,7.475 37.986,7.672 L37.986,34.320 C37.986,34.517 37.918,34.680 37.783,34.809 C37.647,34.936 37.482,35.001 37.288,35.001 L11.410,35.001 C11.216,35.001 11.052,34.937 10.916,34.809 C10.780,34.680 6.010,34.517 6.010,34.320 L6.010,7.672 C6.010,7.475 10.780,7.312 10.916,7.184 C11.052,7.056 11.216,6.992 11.410,6.992 L37.288,6.992 L37.288,6.992 Z"/>
</svg>
