<svg 
 xmlns="http://www.w3.org/2000/svg"
 xmlns:xlink="http://www.w3.org/1999/xlink"
 width="44px" height="45px">
<path fill-rule="evenodd"  fill="rgb(130, 152, 224)"
 d="M22.000,0.219 C34.150,0.219 44.000,10.068 44.000,22.219 C44.000,34.369 34.150,44.219 22.000,44.219 C9.850,44.219 -0.000,34.369 -0.000,22.219 C-0.000,10.068 9.850,0.219 22.000,0.219 Z"/>
<path fill-rule="evenodd"  fill="rgb(255, 255, 255)"
 d="M26.890,12.532 L24.356,12.528 C21.511,12.528 19.672,14.399 19.672,17.293 L19.672,19.490 L17.125,19.490 C16.905,19.490 16.727,19.667 16.727,19.886 L16.727,23.068 C16.727,23.286 16.905,23.463 17.125,23.463 L19.672,23.463 L19.672,31.496 C19.672,31.713 19.850,31.890 20.070,31.890 L23.393,31.890 C23.613,31.890 23.791,31.713 23.791,31.496 L23.791,23.463 L26.769,23.463 C26.989,23.463 27.167,23.286 27.167,23.068 L27.169,19.886 C27.169,19.781 27.126,19.681 27.052,19.606 C26.977,19.532 26.876,19.490 26.770,19.490 L23.791,19.490 L23.791,17.628 C23.791,16.733 24.007,16.278 25.183,16.278 L26.889,16.278 C27.109,16.278 27.288,16.101 27.288,15.882 L27.288,12.927 C27.288,12.709 27.109,12.533 26.890,12.532 Z"/>
</svg>
