<svg 
 xmlns="http://www.w3.org/2000/svg"
 xmlns:xlink="http://www.w3.org/1999/xlink"
 width="79px" height="79px">
<g transform="translate(-3, -3)">
<path fill-rule="evenodd"  stroke-width="1px" stroke="rgb(255, 255, 255)" fill="rgb(255, 255, 255)"
 d="M80.214,50.031 C78.719,57.235 75.189,63.819 70.036,69.099 C62.833,76.462 53.197,80.597 42.892,80.708 C42.734,80.708 42.590,80.708 42.431,80.708 C32.302,80.708 22.745,76.812 15.478,69.719 L14.397,68.670 L14.460,74.235 C14.476,74.761 14.047,75.206 13.522,75.206 C13.506,75.206 13.506,75.206 13.506,75.206 C12.982,75.206 12.552,74.792 12.552,74.267 L12.457,66.396 C12.441,65.871 12.870,65.425 13.395,65.425 L21.266,65.330 C21.807,65.330 22.236,65.744 22.236,66.268 C22.252,66.793 21.823,67.239 21.298,67.239 L15.733,67.302 L16.814,68.351 C23.811,75.206 33.065,78.911 42.861,78.800 C52.656,78.688 61.815,74.776 68.669,67.763 C78.560,57.633 81.740,43.050 76.954,29.708 C76.779,29.214 77.033,28.658 77.526,28.483 C78.019,28.308 78.576,28.563 78.751,29.055 C81.152,35.766 81.661,43.018 80.214,50.031 ZM71.484,18.814 L63.612,18.909 C63.596,18.909 63.596,18.909 63.596,18.909 C63.072,18.909 62.642,18.496 62.642,17.971 C62.626,17.446 63.056,17.001 63.580,17.001 L69.146,16.938 L68.065,15.888 C61.068,9.033 51.813,5.312 42.018,5.440 C32.223,5.551 23.047,9.463 16.210,16.476 C6.303,26.607 3.123,41.189 7.893,54.532 C8.068,55.025 7.814,55.581 7.321,55.757 C7.225,55.804 7.114,55.820 7.003,55.820 C6.621,55.820 6.255,55.581 6.112,55.184 C3.711,48.457 3.202,41.205 4.665,34.208 C6.160,27.004 9.674,20.420 14.842,15.140 C22.046,7.777 31.682,3.642 41.986,3.531 C52.290,3.404 62.022,7.316 69.400,14.520 L70.482,15.570 L70.418,10.004 C70.402,9.479 70.832,9.033 71.356,9.033 C71.372,9.033 71.372,9.033 71.372,9.033 C71.897,9.033 72.326,9.447 72.326,9.972 L72.422,17.844 C72.438,18.369 72.008,18.814 71.484,18.814 Z"/>
<path fill-rule="evenodd"  fill="rgb(255, 255, 255)"
 d="M59.362,52.142 C53.574,62.275 40.610,65.804 30.464,60.008 C20.317,54.211 16.772,41.252 22.561,31.119 C28.350,20.986 41.314,17.457 51.460,23.253 C61.606,29.049 65.151,42.009 59.362,52.142 ZM56.887,50.728 C57.304,49.997 57.664,49.249 57.971,48.489 L51.715,45.669 L46.273,49.157 L51.062,56.930 C53.395,55.398 55.411,53.312 56.887,50.728 ZM41.603,59.911 L41.331,54.203 L39.192,54.004 L35.143,58.969 C37.260,59.681 39.443,59.988 41.603,59.911 ZM26.390,30.494 C25.900,31.134 25.447,31.814 25.036,32.533 C21.594,38.559 21.966,45.739 25.383,51.270 L29.891,48.319 L32.502,45.984 L34.234,42.795 L27.168,37.107 C26.904,36.877 26.733,36.558 26.689,36.210 L27.421,30.638 L26.390,30.494 ZM50.048,25.725 C47.011,23.991 45.843,23.023 42.581,23.121 L40.480,26.001 L43.335,29.189 C43.634,29.523 43.759,29.978 43.671,30.418 L42.827,34.648 L41.359,38.428 C41.470,38.650 41.521,38.896 41.508,39.144 L41.346,42.083 L42.895,40.468 L48.771,37.347 C48.958,37.019 49.268,36.779 49.633,36.680 L57.815,34.453 C56.300,30.897 53.657,27.787 50.048,25.725 ZM58.728,37.158 L50.954,39.274 L45.283,42.034 C45.226,42.136 45.156,42.229 45.075,42.313 L41.183,46.062 C40.782,46.480 40.148,46.613 39.611,46.392 C39.057,46.164 38.698,45.595 38.730,44.997 L38.641,39.363 L40.060,35.484 C39.918,35.201 39.875,34.879 39.937,34.568 L40.737,30.557 L38.005,27.507 C37.778,27.253 37.650,26.927 37.642,26.587 L39.737,23.430 C36.494,24.038 31.266,25.710 28.750,27.948 L28.895,27.969 C29.533,28.058 30.033,28.564 30.113,29.203 L29.449,35.318 L36.430,40.932 C36.642,41.116 36.795,41.360 36.869,41.631 L35.483,46.086 C35.626,46.606 35.462,47.163 35.060,47.522 L31.480,50.723 C31.275,50.906 31.022,51.026 30.751,51.068 L27.313,53.852 C28.594,55.281 30.120,56.533 31.876,57.535 C32.201,57.721 32.539,57.863 32.871,58.027 L36.480,52.660 L39.082,50.257 L43.182,52.395 L44.246,59.645 C45.665,59.387 47.052,58.970 48.373,58.389 L48.231,57.260 C48.228,57.234 48.225,57.207 48.223,57.181 L43.389,48.764 C43.363,48.387 43.487,48.015 43.736,47.731 L50.189,43.082 C50.566,42.649 51.168,42.485 51.714,42.667 L58.827,45.773 C59.489,42.901 59.434,39.947 58.728,37.158 Z"/>
<path fill-rule="evenodd"  stroke-width="2px" stroke="rgb(255, 255, 255)" fill="rgb(16, 54, 91)"
 d="M59.094,25.719 C65.997,25.719 71.594,31.308 71.594,38.203 C71.594,45.098 65.997,50.687 59.094,50.687 C52.190,50.687 46.594,45.098 46.594,38.203 C46.594,31.308 52.190,25.719 59.094,25.719 Z"/>
<text kerning="auto" font-family="GESerif" fill="rgb(255, 255, 255)" transform="matrix( 0.98, 0, 0, 0.98000001907349,54.66125, 41.4295100667478)" font-weight="bold" font-size="15px">&#64;</text>
</g>
</svg>
