<svg 
 xmlns="http://www.w3.org/2000/svg"
 xmlns:xlink="http://www.w3.org/1999/xlink"
 width="101px" height="76px">
<g transform="translate(0, -3.5)">
<path fill-rule="evenodd"  fill="rgb(255, 255, 255)"
 d="M2.671,74.000 L77.954,74.000 C79.257,74.000 80.312,75.056 80.312,76.358 L80.312,76.360 C80.312,77.663 79.257,78.718 77.954,78.718 L2.671,78.718 C1.368,78.718 0.312,77.663 0.312,76.360 L0.312,76.358 C0.312,75.056 1.368,74.000 2.671,74.000 Z"/>
<path fill-rule="evenodd"  fill="rgb(255, 255, 255)"
 d="M50.637,41.775 C51.321,41.092 51.321,39.996 50.637,39.313 L42.200,30.881 C41.877,30.559 41.426,30.366 40.975,30.366 C40.523,30.366 40.072,30.546 39.749,30.881 L31.312,39.313 C30.628,39.996 30.628,41.092 31.312,41.775 C31.647,42.110 32.098,42.291 32.537,42.291 C32.976,42.291 33.427,42.123 33.762,41.775 L39.234,36.308 L39.234,75.034 C39.234,76.001 40.007,76.774 40.975,76.774 C41.942,76.774 42.716,76.001 42.716,75.034 L42.716,36.308 L48.187,41.775 C48.858,42.458 49.954,42.458 50.637,41.775 Z"/>
<path fill-rule="evenodd"  fill="rgb(255, 255, 255)"
 d="M60.994,52.235 L50.312,52.235 L50.312,49.555 L60.994,49.555 C66.802,49.555 71.528,44.832 71.528,39.027 C71.528,33.222 67.586,27.716 61.778,27.716 C61.425,27.716 61.065,27.734 60.709,27.770 C60.315,27.809 59.924,27.673 59.640,27.398 C59.357,27.123 59.209,26.736 59.237,26.342 L59.247,26.204 C59.270,25.882 59.292,25.577 59.292,25.281 C59.292,17.066 49.860,11.167 41.641,11.167 C38.016,11.167 34.524,12.485 31.809,14.877 C29.119,17.247 25.411,20.500 24.929,24.037 C24.832,24.749 24.189,25.259 23.474,25.190 C23.053,25.150 22.673,25.132 22.314,25.132 C15.576,25.132 10.095,30.609 10.095,37.343 C10.095,44.077 15.576,49.555 22.314,49.555 L32.344,49.555 L32.344,52.235 L22.314,52.235 C14.098,52.235 7.413,45.554 7.413,37.343 C7.413,29.132 14.098,22.451 22.314,22.451 C22.370,22.451 22.426,22.452 22.483,22.452 C23.258,18.755 27.175,15.387 30.036,12.866 C33.241,10.043 37.363,8.487 41.641,8.487 C51.258,8.487 61.841,15.457 61.972,25.038 C69.170,25.142 74.210,31.810 74.210,39.027 C74.210,46.310 68.281,52.235 60.994,52.235 Z"/>
<path fill-rule="evenodd"  stroke-width="1px" stroke="rgb(255, 255, 255)" fill="rgb(255, 255, 255)"
 d="M94.532,12.200 C94.472,7.692 89.661,4.412 85.288,4.412 C83.344,4.412 81.470,5.144 80.013,6.473 C78.712,7.659 76.931,9.244 76.579,10.983 C76.553,10.983 76.527,10.983 76.502,10.983 C72.767,10.983 69.728,14.127 69.728,17.990 C69.728,21.854 72.767,24.998 76.502,24.998 L94.087,24.998 C97.400,24.998 100.095,22.210 100.095,18.783 C100.095,15.387 97.804,12.249 94.532,12.200 ZM94.087,23.737 L76.502,23.737 C73.439,23.737 70.947,21.159 70.947,17.990 C70.947,14.822 73.439,12.244 76.502,12.244 C76.665,12.244 76.838,12.254 77.029,12.272 C77.354,12.305 77.646,12.064 77.691,11.729 C77.910,10.065 79.596,8.535 80.819,7.419 C82.053,6.293 83.641,5.673 85.288,5.673 C89.025,5.673 93.313,8.449 93.313,12.315 C93.313,12.454 93.303,12.597 93.293,12.749 L93.288,12.814 C93.275,13.000 93.343,13.181 93.472,13.311 C93.601,13.440 93.778,13.504 93.957,13.486 C94.119,13.469 94.283,13.461 94.443,13.461 C97.084,13.461 98.876,16.052 98.876,18.783 C98.876,21.515 96.728,23.737 94.087,23.737 Z"/>
<path fill-rule="evenodd"  fill="rgb(255, 255, 255)"
 d="M52.969,61.000 L45.125,61.000 L45.125,57.875 L52.969,57.875 C53.832,57.875 54.531,58.574 54.531,59.437 L54.531,59.438 C54.531,60.300 53.832,61.000 52.969,61.000 ZM36.656,61.000 L28.656,61.000 C27.793,61.000 27.094,60.300 27.094,59.438 L27.094,59.437 C27.094,58.574 27.793,57.875 28.656,57.875 L36.656,57.875 L36.656,61.000 ZM33.374,62.656 L36.656,62.656 L36.656,65.781 L33.374,65.781 C32.512,65.781 31.812,65.082 31.812,64.219 L31.812,64.218 C31.812,63.355 32.512,62.656 33.374,62.656 ZM45.125,62.656 L48.251,62.656 C49.113,62.656 49.812,63.355 49.812,64.218 L49.812,64.219 C49.812,65.082 49.113,65.781 48.251,65.781 L45.125,65.781 L45.125,62.656 Z"/></g>
</svg>
