<svg 
 xmlns="http://www.w3.org/2000/svg"
 xmlns:xlink="http://www.w3.org/1999/xlink"
 width="84.5px" height="60.5px">
<path fill-rule="evenodd"  fill="rgb(255, 255, 255)"
 d="M34.207,50.740 L34.207,53.440 L24.415,53.440 L24.415,50.740 L34.207,50.740 ZM46.848,50.740 L46.848,53.440 L37.055,53.440 L37.055,50.740 L46.848,50.740 ZM63.903,11.969 L63.911,3.172 L5.944,3.120 L5.905,45.300 L34.889,45.327 L56.937,45.346 L56.937,48.253 L34.886,48.233 L3.004,48.205 L3.000,51.963 L7.943,55.509 L56.937,55.552 L56.937,58.459 L6.740,58.414 L0.101,53.164 L0.109,45.295 L3.007,45.298 L3.048,0.211 L66.812,0.268 L66.801,11.969 L63.903,11.969 Z"/>
<path fill-rule="evenodd"  fill="rgb(255, 255, 255)"
 d="M51.760,19.794 C51.390,20.161 50.790,20.161 50.419,19.793 C42.397,11.860 29.342,11.860 21.319,19.793 C20.949,20.160 20.349,20.160 19.978,19.793 C19.608,19.426 19.607,18.833 19.977,18.466 C28.740,9.801 42.998,9.802 51.760,18.466 C52.131,18.835 52.131,19.428 51.760,19.794 ZM47.535,22.646 C47.906,23.012 47.907,23.605 47.536,23.972 C47.166,24.338 46.566,24.338 46.195,23.971 C40.501,18.341 31.236,18.341 25.542,23.971 C25.172,24.337 24.572,24.337 24.202,23.971 C23.832,23.605 23.831,23.011 24.201,22.645 C30.634,16.283 41.102,16.284 47.535,22.646 ZM42.842,27.287 C43.213,27.654 43.213,28.247 42.842,28.614 C42.472,28.980 41.872,28.980 41.501,28.613 C38.395,25.542 33.342,25.542 30.236,28.613 C29.866,28.979 29.266,28.979 28.895,28.613 C28.525,28.246 28.525,27.653 28.895,27.287 C32.740,23.484 38.997,23.484 42.842,27.287 ZM37.517,32.539 C38.426,33.438 38.426,34.899 37.517,35.798 C36.608,36.696 35.130,36.697 34.221,35.799 C33.313,34.900 33.313,33.438 34.221,32.539 C35.130,31.641 36.609,31.641 37.517,32.539 Z"/>
<path fill-rule="evenodd"  stroke-width="1px" stroke="rgb(255, 255, 255)" fill="rgb(255, 255, 255)"
 d="M80.746,59.903 L64.010,59.903 C62.397,59.903 61.083,58.567 61.083,56.927 L61.083,19.405 C61.083,17.765 62.397,16.430 64.010,16.430 L80.747,16.430 C82.360,16.430 83.673,17.765 83.673,19.405 L83.673,56.927 C83.673,58.567 82.360,59.903 80.746,59.903 ZM82.344,19.405 C82.344,18.510 81.628,17.781 80.746,17.781 L64.010,17.781 C63.129,17.781 62.412,18.510 62.412,19.405 L62.412,21.122 L82.344,21.122 L82.344,19.405 ZM82.344,22.473 L62.412,22.473 L62.412,51.893 L82.344,51.893 L82.344,22.473 ZM82.344,53.244 L62.412,53.244 L62.412,56.927 C62.412,57.823 63.129,58.552 64.010,58.552 L80.747,58.552 C81.628,58.552 82.344,57.823 82.344,56.927 L82.344,53.244 ZM72.307,57.297 C71.519,57.297 70.878,56.648 70.878,55.850 C70.878,55.052 71.519,54.403 72.307,54.403 C73.095,54.403 73.736,55.052 73.736,55.850 C73.736,56.648 73.095,57.297 72.307,57.297 ZM70.983,18.712 L73.640,18.712 C74.008,18.712 74.305,19.014 74.305,19.388 C74.305,19.761 74.008,20.063 73.640,20.063 L70.983,20.063 C70.615,20.063 70.318,19.761 70.318,19.388 C70.318,19.014 70.615,18.712 70.983,18.712 Z"/>
</svg>
