<svg 
 xmlns="http://www.w3.org/2000/svg"
 xmlns:xlink="http://www.w3.org/1999/xlink"
 width="80.5px" height="77.5px">
<g transform="translate(0, -2)">
<path fill-rule="evenodd"  fill="rgb(255, 255, 255)"
 d="M15.835,12.750 L15.852,12.750 C16.503,12.750 17.031,13.278 17.031,13.929 L17.031,21.383 C17.031,22.034 16.503,22.562 15.852,22.562 L15.835,22.562 C15.184,22.562 14.656,22.034 14.656,21.383 L14.656,13.929 C14.656,13.278 15.184,12.750 15.835,12.750 Z"/>
<path fill-rule="evenodd"  fill="rgb(255, 255, 255)"
 d="M22.891,12.750 C23.538,12.750 24.062,13.275 24.062,13.922 L24.062,21.390 C24.062,22.038 23.538,22.562 22.891,22.562 C22.243,22.562 21.719,22.038 21.719,21.390 L21.719,13.922 C21.719,13.275 22.243,12.750 22.891,12.750 Z"/>
<path fill-rule="evenodd"  fill="rgb(255, 255, 255)"
 d="M29.937,12.750 C30.576,12.750 31.094,13.268 31.094,13.906 L31.094,21.406 C31.094,22.045 30.576,22.562 29.937,22.562 C29.299,22.562 28.781,22.045 28.781,21.406 L28.781,13.906 C28.781,13.268 29.299,12.750 29.937,12.750 Z"/>
<path fill-rule="evenodd"  fill="rgb(255, 255, 255)"
 d="M36.992,12.750 L37.008,12.750 C37.660,12.750 38.187,13.278 38.187,13.929 L38.187,21.383 C38.187,22.034 37.660,22.562 37.008,22.562 L36.992,22.562 C36.340,22.562 35.812,22.034 35.812,21.383 L35.812,13.929 C35.812,13.278 36.340,12.750 36.992,12.750 Z"/>
<path fill-rule="evenodd"  fill="rgb(255, 255, 255)"
 d="M15.835,27.437 L15.852,27.437 C16.503,27.437 17.031,27.965 17.031,28.616 L17.031,36.071 C17.031,36.722 16.503,37.250 15.852,37.250 L15.835,37.250 C15.184,37.250 14.656,36.722 14.656,36.071 L14.656,28.616 C14.656,27.965 15.184,27.437 15.835,27.437 Z"/>
<path fill-rule="evenodd"  fill="rgb(255, 255, 255)"
 d="M22.891,27.437 C23.538,27.437 24.062,27.962 24.062,28.609 L24.062,36.078 C24.062,36.725 23.538,37.250 22.891,37.250 C22.243,37.250 21.719,36.725 21.719,36.078 L21.719,28.609 C21.719,27.962 22.243,27.437 22.891,27.437 Z"/>
<path fill-rule="evenodd"  fill="rgb(255, 255, 255)"
 d="M29.937,27.437 C30.576,27.437 31.094,27.955 31.094,28.594 L31.094,36.094 C31.094,36.732 30.576,37.250 29.937,37.250 C29.299,37.250 28.781,36.732 28.781,36.094 L28.781,28.594 C28.781,27.955 29.299,27.437 29.937,27.437 Z"/>
<path fill-rule="evenodd"  fill="rgb(255, 255, 255)"
 d="M36.992,27.437 L37.008,27.437 C37.660,27.437 38.187,27.965 38.187,28.616 L38.187,36.071 C38.187,36.722 37.660,37.250 37.008,37.250 L36.992,37.250 C36.340,37.250 35.812,36.722 35.812,36.071 L35.812,28.616 C35.812,27.965 36.340,27.437 36.992,27.437 Z"/>
<path fill-rule="evenodd"  fill="rgb(255, 255, 255)"
 d="M15.835,42.156 L15.852,42.156 C16.503,42.156 17.031,42.684 17.031,43.335 L17.031,50.758 C17.031,51.409 16.503,51.937 15.852,51.937 L15.835,51.937 C15.184,51.937 14.656,51.409 14.656,50.758 L14.656,43.335 C14.656,42.684 15.184,42.156 15.835,42.156 Z"/>
<path fill-rule="evenodd"  fill="rgb(255, 255, 255)"
 d="M22.891,42.156 C23.538,42.156 24.062,42.681 24.062,43.328 L24.062,50.765 C24.062,51.413 23.538,51.937 22.891,51.937 C22.243,51.937 21.719,51.413 21.719,50.765 L21.719,43.328 C21.719,42.681 22.243,42.156 22.891,42.156 Z"/>
<path fill-rule="evenodd"  fill="rgb(255, 255, 255)"
 d="M29.937,42.156 C30.576,42.156 31.094,42.674 31.094,43.312 L31.094,50.781 C31.094,51.420 30.576,51.937 29.937,51.937 C29.299,51.937 28.781,51.420 28.781,50.781 L28.781,43.312 C28.781,42.674 29.299,42.156 29.937,42.156 Z"/>
<path fill-rule="evenodd"  fill="rgb(255, 255, 255)"
 d="M36.992,42.156 L37.008,42.156 C37.660,42.156 38.187,42.684 38.187,43.335 L38.187,50.758 C38.187,51.409 37.660,51.937 37.008,51.937 L36.992,51.937 C36.340,51.937 35.812,51.409 35.812,50.758 L35.812,43.335 C35.812,42.684 36.340,42.156 36.992,42.156 Z"/>
<path fill-rule="evenodd"  fill="rgb(255, 255, 255)"
 d="M15.835,56.844 L15.852,56.844 C16.503,56.844 17.031,57.371 17.031,58.023 L17.031,65.477 C17.031,66.128 16.503,66.656 15.852,66.656 L15.835,66.656 C15.184,66.656 14.656,66.128 14.656,65.477 L14.656,58.023 C14.656,57.371 15.184,56.844 15.835,56.844 Z"/>
<path fill-rule="evenodd"  fill="rgb(255, 255, 255)"
 d="M22.891,56.844 C23.538,56.844 24.062,57.368 24.062,58.015 L24.062,65.484 C24.062,66.131 23.538,66.656 22.891,66.656 C22.243,66.656 21.719,66.131 21.719,65.484 L21.719,58.015 C21.719,57.368 22.243,56.844 22.891,56.844 Z"/>
<path fill-rule="evenodd"  fill="rgb(255, 255, 255)"
 d="M29.937,56.844 C30.576,56.844 31.094,57.361 31.094,58.000 L31.094,65.500 C31.094,66.138 30.576,66.656 29.937,66.656 C29.299,66.656 28.781,66.138 28.781,65.500 L28.781,58.000 C28.781,57.361 29.299,56.844 29.937,56.844 Z"/>
<path fill-rule="evenodd"  fill="rgb(255, 255, 255)"
 d="M36.992,56.844 L37.008,56.844 C37.660,56.844 38.187,57.371 38.187,58.023 L38.187,65.477 C38.187,66.128 37.660,66.656 37.008,66.656 L36.992,66.656 C36.340,66.656 35.812,66.128 35.812,65.477 L35.812,58.023 C35.812,57.371 36.340,56.844 36.992,56.844 Z"/>
<path fill-rule="evenodd"  stroke-width="2px" stroke="rgb(255, 255, 255)" fill-opacity="0" fill="rgb(74, 183, 195)"
 d="M9.250,3.125 L42.437,3.125 C44.094,3.125 45.437,4.468 45.437,6.125 L45.437,73.844 C45.437,75.500 44.094,76.844 42.437,76.844 L9.250,76.844 C7.593,76.844 6.250,75.500 6.250,73.844 L6.250,6.125 C6.250,4.468 7.593,3.125 9.250,3.125 Z"/>
<path fill-rule="evenodd"  stroke-width="2px" stroke="rgb(255, 255, 255)" fill-opacity="0" fill="rgb(74, 183, 195)"
 d="M46.875,30.562 L69.875,30.562 C71.532,30.562 72.875,31.906 72.875,33.562 L72.875,73.844 C72.875,75.500 71.532,76.844 69.875,76.844 L46.875,76.844 C45.218,76.844 43.875,75.500 43.875,73.844 L43.875,33.562 C43.875,31.906 45.218,30.562 46.875,30.562 Z"/>
<path fill-rule="evenodd"  fill="rgb(255, 255, 255)"
 d="M51.857,39.844 L51.862,39.844 C52.352,39.844 52.750,40.241 52.750,40.732 L52.750,50.268 C52.750,50.758 52.352,51.156 51.862,51.156 L51.857,51.156 C51.366,51.156 50.969,50.758 50.969,50.268 L50.969,40.732 C50.969,40.241 51.366,39.844 51.857,39.844 Z"/>
<path fill-rule="evenodd"  fill="rgb(255, 255, 255)"
 d="M56.451,39.844 L56.456,39.844 C56.946,39.844 57.344,40.241 57.344,40.732 L57.344,50.268 C57.344,50.758 56.946,51.156 56.456,51.156 L56.451,51.156 C55.960,51.156 55.562,50.758 55.562,50.268 L55.562,40.732 C55.562,40.241 55.960,39.844 56.451,39.844 Z"/>
<path fill-rule="evenodd"  fill="rgb(255, 255, 255)"
 d="M61.029,39.844 L61.033,39.844 C61.515,39.844 61.906,40.234 61.906,40.717 L61.906,50.283 C61.906,50.765 61.515,51.156 61.033,51.156 L61.029,51.156 C60.547,51.156 60.156,50.765 60.156,50.283 L60.156,40.717 C60.156,40.234 60.547,39.844 61.029,39.844 Z"/>
<path fill-rule="evenodd"  fill="rgb(255, 255, 255)"
 d="M65.638,39.844 L65.643,39.844 C66.134,39.844 66.531,40.241 66.531,40.732 L66.531,50.268 C66.531,50.758 66.134,51.156 65.643,51.156 L65.638,51.156 C65.148,51.156 64.750,50.758 64.750,50.268 L64.750,40.732 C64.750,40.241 65.148,39.844 65.638,39.844 Z"/>
<path fill-rule="evenodd"  fill="rgb(255, 255, 255)"
 d="M51.857,54.719 L51.862,54.719 C52.352,54.719 52.750,55.116 52.750,55.607 L52.750,65.112 C52.750,65.602 52.352,66.000 51.862,66.000 L51.857,66.000 C51.366,66.000 50.969,65.602 50.969,65.112 L50.969,55.607 C50.969,55.116 51.366,54.719 51.857,54.719 Z"/>
<path fill-rule="evenodd"  fill="rgb(255, 255, 255)"
 d="M56.451,54.719 L56.456,54.719 C56.946,54.719 57.344,55.116 57.344,55.607 L57.344,65.112 C57.344,65.602 56.946,66.000 56.456,66.000 L56.451,66.000 C55.960,66.000 55.562,65.602 55.562,65.112 L55.562,55.607 C55.562,55.116 55.960,54.719 56.451,54.719 Z"/>
<path fill-rule="evenodd"  fill="rgb(255, 255, 255)"
 d="M61.029,54.719 L61.033,54.719 C61.515,54.719 61.906,55.109 61.906,55.591 L61.906,65.127 C61.906,65.609 61.515,66.000 61.033,66.000 L61.029,66.000 C60.547,66.000 60.156,65.609 60.156,65.127 L60.156,55.591 C60.156,55.109 60.547,54.719 61.029,54.719 Z"/>
<path fill-rule="evenodd"  fill="rgb(255, 255, 255)"
 d="M65.638,54.719 L65.643,54.719 C66.134,54.719 66.531,55.116 66.531,55.607 L66.531,65.112 C66.531,65.602 66.134,66.000 65.643,66.000 L65.638,66.000 C65.148,66.000 64.750,65.602 64.750,65.112 L64.750,55.607 C64.750,55.116 65.148,54.719 65.638,54.719 Z"/>
<path fill-rule="evenodd"  fill="rgb(255, 255, 255)"
 d="M2.514,74.500 L77.767,74.500 C79.069,74.500 80.125,75.556 80.125,76.858 L80.125,76.860 C80.125,78.163 79.069,79.218 77.767,79.218 L2.514,79.218 C1.212,79.218 0.156,78.163 0.156,76.860 L0.156,76.858 C0.156,75.556 1.212,74.500 2.514,74.500 Z"/></g>
</svg>
