<svg 
 xmlns="http://www.w3.org/2000/svg"
 xmlns:xlink="http://www.w3.org/1999/xlink"
 width="92px" height="69px">
<path fill-rule="evenodd"  fill="rgb(255, 255, 255)"
 d="M81.637,24.836 L82.946,19.703 C82.916,19.377 82.800,18.725 82.343,18.725 L78.149,18.725 L18.689,18.725 C18.383,18.725 18.113,18.930 18.034,19.223 L11.168,54.835 C11.123,55.017 10.885,55.578 10.961,55.676 C11.036,55.776 11.562,55.588 11.854,55.588 L53.830,56.073 L53.830,58.684 L10.435,58.684 C9.468,58.684 8.576,58.246 7.987,57.482 C7.564,56.932 7.354,56.274 7.360,55.602 L7.353,55.602 L0.421,3.433 C0.421,1.635 1.895,0.171 3.704,0.171 L39.115,0.171 L45.123,8.529 L74.867,8.529 C76.676,8.529 78.149,9.992 78.149,11.792 L78.149,16.337 L82.343,16.337 C84.090,16.337 85.359,17.829 85.359,19.886 L85.359,20.097 L84.145,24.836 L81.637,24.836 ZM37.877,2.559 L3.704,2.559 C3.220,2.559 2.825,2.951 2.825,3.433 L6.760,30.348 L11.222,8.509 L12.170,8.711 L12.170,8.662 L42.264,8.662 L37.877,2.559 ZM75.745,11.792 C75.745,11.310 75.351,10.918 74.865,10.918 L43.885,10.918 L43.784,10.777 L12.928,10.777 L7.664,36.534 L9.401,48.413 L15.747,18.501 C16.037,17.422 17.009,16.574 18.178,16.380 C18.345,16.351 18.517,16.337 18.690,16.337 L75.745,16.337 L75.745,11.792 Z"/>
<path fill-rule="evenodd"  fill="rgb(255, 255, 255)"
 d="M88.317,60.857 C87.622,60.857 87.065,60.302 87.065,59.607 C87.065,58.911 87.622,58.355 88.317,58.355 C88.911,58.355 89.393,57.874 89.393,57.280 L89.393,30.020 C89.393,29.427 88.911,28.945 88.317,28.945 L70.189,28.945 C69.596,28.945 69.114,29.427 69.114,30.020 C69.114,30.714 68.557,31.271 67.862,31.271 C67.166,31.271 66.610,30.714 66.610,30.020 C66.610,28.046 68.214,26.443 70.189,26.443 L88.317,26.443 C90.293,26.443 91.897,28.046 91.897,30.020 L91.897,57.280 C91.897,59.255 90.293,60.857 88.317,60.857 ZM86.771,35.014 L86.771,65.194 C86.771,67.167 85.167,68.771 83.192,68.771 L62.140,68.771 C60.164,68.771 58.560,67.167 58.560,65.194 L58.560,35.014 C58.560,33.040 60.164,31.437 62.140,31.437 L83.192,31.437 C85.158,31.437 86.762,33.040 86.771,35.014 ZM62.130,33.939 C61.537,33.939 61.055,34.421 61.055,35.014 L61.055,65.185 C61.055,65.778 61.537,66.260 62.130,66.260 L83.182,66.260 C83.776,66.260 84.258,65.778 84.258,65.185 L84.258,35.014 C84.258,34.421 83.776,33.939 83.182,33.939 L62.130,33.939 Z"/>
<path fill-rule="evenodd"  fill="rgb(255, 255, 255)"
 d="M66.328,39.875 L78.891,39.875 C79.469,39.875 79.937,40.343 79.937,40.922 C79.937,41.500 79.469,41.969 78.891,41.969 L66.328,41.969 C65.750,41.969 65.281,41.500 65.281,40.922 C65.281,40.343 65.750,39.875 66.328,39.875 Z"/>
<path fill-rule="evenodd"  fill="rgb(255, 255, 255)"
 d="M66.328,45.687 L78.891,45.687 C79.469,45.687 79.937,46.156 79.937,46.734 C79.937,47.312 79.469,47.781 78.891,47.781 L66.328,47.781 C65.750,47.781 65.281,47.312 65.281,46.734 C65.281,46.156 65.750,45.687 66.328,45.687 Z"/>
<path fill-rule="evenodd"  fill="rgb(255, 255, 255)"
 d="M66.312,51.781 L78.906,51.781 C79.476,51.781 79.937,52.243 79.937,52.812 C79.937,53.382 79.476,53.844 78.906,53.844 L66.312,53.844 C65.743,53.844 65.281,53.382 65.281,52.812 C65.281,52.243 65.743,51.781 66.312,51.781 Z"/>
<path fill-rule="evenodd"  fill="rgb(255, 255, 255)"
 d="M66.353,57.594 L72.959,57.594 C73.551,57.594 74.031,58.074 74.031,58.665 L74.031,58.678 C74.031,59.270 73.551,59.750 72.959,59.750 L66.353,59.750 C65.761,59.750 65.281,59.270 65.281,58.678 L65.281,58.665 C65.281,58.074 65.761,57.594 66.353,57.594 Z"/>
</svg>
