<svg 
 xmlns="http://www.w3.org/2000/svg"
 xmlns:xlink="http://www.w3.org/1999/xlink"
 width="88px" height="65px">
<g transform="translate(0, -5)">
<path fill-rule="evenodd"  fill="rgb(255, 255, 255)"
 d="M2.608,64.000 L77.892,64.000 C79.194,64.000 80.250,65.056 80.250,66.358 L80.250,66.360 C80.250,67.663 79.194,68.718 77.892,68.718 L2.608,68.718 C1.306,68.718 0.250,67.663 0.250,66.360 L0.250,66.358 C0.250,65.056 1.306,64.000 2.608,64.000 Z"/>
<path fill-rule="evenodd"  fill="rgb(255, 255, 255)"
 d="M11.075,42.437 L11.331,42.437 C11.994,42.437 12.531,42.974 12.531,43.637 L12.531,62.800 C12.531,63.463 11.994,64.000 11.331,64.000 L11.075,64.000 C10.412,64.000 9.875,63.463 9.875,62.800 L9.875,43.637 C9.875,42.974 10.412,42.437 11.075,42.437 Z"/>
<path fill-rule="evenodd"  fill="rgb(255, 255, 255)"
 d="M18.981,13.031 L19.237,13.031 C19.900,13.031 20.438,13.568 20.438,14.231 L20.438,62.800 C20.438,63.463 19.900,64.000 19.237,64.000 L18.981,64.000 C18.318,64.000 17.781,63.463 17.781,62.800 L17.781,14.231 C17.781,13.568 18.318,13.031 18.981,13.031 Z"/>
<path fill-rule="evenodd"  fill="rgb(255, 255, 255)"
 d="M26.950,32.625 L27.144,32.625 C27.806,32.625 28.344,33.162 28.344,33.825 L28.344,62.800 C28.344,63.463 27.806,64.000 27.144,64.000 L26.950,64.000 C26.287,64.000 25.750,63.463 25.750,62.800 L25.750,33.825 C25.750,33.162 26.287,32.625 26.950,32.625 Z"/>
<path fill-rule="evenodd"  fill="rgb(255, 255, 255)"
 d="M34.856,22.844 L35.112,22.844 C35.775,22.844 36.312,23.381 36.312,24.044 L36.312,62.800 C36.312,63.463 35.775,64.000 35.112,64.000 L34.856,64.000 C34.193,64.000 33.656,63.463 33.656,62.800 L33.656,24.044 C33.656,23.381 34.193,22.844 34.856,22.844 Z"/>
<path fill-rule="evenodd"  fill="rgb(255, 255, 255)"
 d="M43.387,42.437 L43.675,42.437 C44.338,42.437 44.875,42.974 44.875,43.637 L44.875,62.800 C44.875,63.463 44.338,64.000 43.675,64.000 L43.387,64.000 C42.725,64.000 42.187,63.463 42.187,62.800 L42.187,43.637 C42.187,42.974 42.725,42.437 43.387,42.437 Z"/>
<path fill-rule="evenodd"  fill="rgb(255, 255, 255)"
 d="M51.325,13.031 L51.581,13.031 C52.244,13.031 52.781,13.568 52.781,14.231 L52.781,62.800 C52.781,63.463 52.244,64.000 51.581,64.000 L51.325,64.000 C50.662,64.000 50.125,63.463 50.125,62.800 L50.125,14.231 C50.125,13.568 50.662,13.031 51.325,13.031 Z"/>
<path fill-rule="evenodd"  fill="rgb(255, 255, 255)"
 d="M59.294,32.625 L59.487,32.625 C60.150,32.625 60.687,33.162 60.687,33.825 L60.687,62.800 C60.687,63.463 60.150,64.000 59.487,64.000 L59.294,64.000 C58.631,64.000 58.094,63.463 58.094,62.800 L58.094,33.825 C58.094,33.162 58.631,32.625 59.294,32.625 Z"/>
<path fill-rule="evenodd"  fill="rgb(255, 255, 255)"
 d="M67.200,22.844 L67.456,22.844 C68.119,22.844 68.656,23.381 68.656,24.044 L68.656,62.800 C68.656,63.463 68.119,64.000 67.456,64.000 L67.200,64.000 C66.537,64.000 66.000,63.463 66.000,62.800 L66.000,24.044 C66.000,23.381 66.537,22.844 67.200,22.844 Z"/>
<path fill-rule="evenodd"  stroke-width="3px" stroke="rgb(255, 255, 255)" fill="rgb(44, 105, 126)"
 d="M73.078,7.156 C80.387,7.156 86.312,13.081 86.312,20.390 C86.312,27.700 80.387,33.625 73.078,33.625 C65.769,33.625 59.844,27.700 59.844,20.390 C59.844,13.081 65.769,7.156 73.078,7.156 Z"/>
<path fill-rule="evenodd"  fill="rgb(255, 255, 255)"
 d="M76.658,21.277 C76.599,21.069 76.527,20.887 76.443,20.733 C76.359,20.579 76.238,20.428 76.081,20.282 C75.924,20.135 75.783,20.016 75.657,19.926 C75.532,19.836 75.360,19.736 75.142,19.624 C74.923,19.513 74.750,19.430 74.623,19.375 C74.495,19.321 74.311,19.246 74.070,19.151 C73.856,19.066 73.696,19.001 73.592,18.956 C73.487,18.911 73.349,18.847 73.179,18.764 C73.008,18.681 72.880,18.608 72.796,18.544 C72.712,18.480 72.622,18.401 72.526,18.309 C72.431,18.216 72.364,18.118 72.325,18.014 C72.286,17.910 72.267,17.796 72.267,17.673 C72.267,17.351 72.404,17.087 72.677,16.884 C72.950,16.679 73.303,16.578 73.735,16.578 C73.926,16.578 74.121,16.605 74.319,16.660 C74.517,16.714 74.687,16.776 74.828,16.845 C74.969,16.913 75.102,16.989 75.227,17.072 C75.352,17.155 75.441,17.218 75.494,17.261 C75.546,17.303 75.579,17.331 75.593,17.346 C75.652,17.393 75.713,17.409 75.777,17.395 C75.845,17.390 75.898,17.353 75.934,17.282 L76.487,16.244 C76.542,16.149 76.531,16.059 76.453,15.974 C76.426,15.945 76.392,15.912 76.351,15.874 C76.310,15.836 76.221,15.768 76.084,15.668 C75.948,15.568 75.803,15.480 75.651,15.401 C75.498,15.323 75.300,15.244 75.056,15.163 C74.813,15.083 74.561,15.028 74.302,15.000 L74.302,13.748 C74.302,13.682 74.281,13.627 74.241,13.585 C74.200,13.542 74.147,13.521 74.084,13.521 L73.161,13.521 C73.102,13.521 73.051,13.543 73.008,13.588 C72.965,13.634 72.943,13.687 72.943,13.748 L72.943,15.028 C72.228,15.170 71.648,15.488 71.202,15.981 C70.756,16.473 70.532,17.047 70.532,17.701 C70.532,17.896 70.552,18.080 70.591,18.256 C70.629,18.431 70.677,18.588 70.734,18.728 C70.791,18.868 70.872,19.006 70.976,19.140 C71.081,19.276 71.180,19.392 71.273,19.489 C71.367,19.586 71.489,19.687 71.639,19.791 C71.789,19.896 71.918,19.980 72.025,20.044 C72.132,20.107 72.274,20.181 72.451,20.264 C72.629,20.347 72.769,20.409 72.871,20.452 C72.974,20.495 73.114,20.554 73.291,20.630 C73.537,20.729 73.719,20.806 73.838,20.861 C73.956,20.916 74.106,20.991 74.289,21.088 C74.471,21.186 74.604,21.274 74.688,21.355 C74.772,21.436 74.848,21.535 74.917,21.654 C74.985,21.772 75.019,21.897 75.019,22.030 C75.019,22.405 74.879,22.694 74.599,22.898 C74.319,23.102 73.995,23.203 73.626,23.203 C73.458,23.203 73.289,23.185 73.121,23.147 C72.529,23.023 71.976,22.727 71.462,22.258 L71.448,22.244 C71.407,22.192 71.352,22.170 71.284,22.180 C71.211,22.189 71.159,22.218 71.127,22.265 L70.424,23.225 C70.355,23.320 70.360,23.417 70.437,23.516 C70.460,23.545 70.500,23.587 70.557,23.644 C70.614,23.701 70.720,23.790 70.874,23.911 C71.029,24.032 71.198,24.146 71.380,24.252 C71.562,24.359 71.793,24.464 72.073,24.569 C72.353,24.673 72.643,24.746 72.943,24.789 L72.943,26.033 C72.943,26.095 72.965,26.148 73.008,26.193 C73.052,26.238 73.103,26.260 73.162,26.260 L74.084,26.260 C74.148,26.260 74.200,26.239 74.241,26.197 C74.282,26.154 74.302,26.100 74.302,26.033 L74.302,24.789 C75.026,24.665 75.615,24.342 76.068,23.818 C76.521,23.295 76.747,22.671 76.747,21.945 C76.747,21.708 76.717,21.485 76.658,21.277 Z"/>
</g>
</svg>
